<svg xmlns="http://www.w3.org/2000/svg" version="1.1" xmlns:xlink="http://www.w3.org/1999/xlink" width="512" height="512" x="0" y="0" viewBox="0 0 512 512" style="enable-background:new 0 0 512 512" xml:space="preserve" class=""><g><path d="M319.992 440.05c101.485 0 184.05-82.564 184.05-184.05S421.478 71.95 319.992 71.95h-31.831v368.1h31.831z" style="" fill="#5e6e89" data-original="#4d4e5c" class="" opacity="1"></path><path d="M288.161 440.05c-101.485 0-184.05-82.564-184.05-184.05s82.564-184.05 184.05-184.05 184.05 82.564 184.05 184.05c.001 101.486-82.564 184.05-184.05 184.05z" style="" fill="#8c9bb2" data-original="#626375" class="" opacity="1"></path><path d="M288.161 393.406c-75.766 0-137.406-61.64-137.406-137.406s61.64-137.407 137.406-137.407S425.568 180.234 425.568 256s-61.64 137.406-137.407 137.406z" style="" fill="#4dadb3" data-original="#7dd2f0" class="" opacity="1"></path><path d="M288.161 346.763c-50.047 0-90.763-40.716-90.763-90.763s40.716-90.763 90.763-90.763c50.046 0 90.763 40.716 90.763 90.763 0 50.047-40.716 90.763-90.763 90.763z" style="" fill="#ffbc50" data-original="#ffd782" class="" opacity="1"></path><circle cx="288.167" cy="255.996" r="44.119" style="" fill="#b8357b" data-original="#ff6465" class="" opacity="1"></circle><path d="M82.406 256H29.179L7.958 217.293h53.227z" style="" fill="#dc5fa2" data-original="#ff8080" class="" opacity="1"></path><path d="M82.406 256H29.179L7.958 294.708h53.227z" style="" fill="#b8357b" data-original="#ff6465" class="" opacity="1"></path><path d="M319.994 63.992h-31.831c-45.18 0-89.106 16.076-123.685 45.266a7.958 7.958 0 0 0 10.266 12.163c31.711-26.77 71.991-41.513 113.418-41.513a176.314 176.314 0 0 1 28.227 2.272C400.114 95.729 464.254 168.509 464.255 256c0 95.581-76.545 173.619-171.554 176.034-1.508.038-3.021.057-4.538.057-94.43 0-171.727-74.717-175.904-168.135h30.76c4.145 76.468 67.66 137.407 145.143 137.407 80.154 0 145.364-65.21 145.364-145.364 0-31.237-9.807-61.032-28.36-86.162a7.957 7.957 0 1 0-12.803 9.452c16.518 22.375 25.248 48.901 25.248 76.711 0 71.378-58.07 129.448-129.448 129.448-68.705 0-125.072-53.805-129.197-121.492h30.819c1.802 22.425 11.168 43.493 26.872 60.007a7.958 7.958 0 1 0 11.533-10.967c-12.875-13.54-20.691-30.718-22.451-49.04h30.955c3.842 24.951 25.458 44.12 51.469 44.12 28.715 0 52.078-23.363 52.078-52.078s-23.362-52.077-52.078-52.077c-26.01 0-47.627 19.168-51.469 44.119h-30.945c4.019-41.938 39.441-74.847 82.414-74.847 45.658 0 82.805 37.147 82.805 82.806 0 45.658-37.146 82.804-82.805 82.804-12.755 0-25.01-2.849-36.422-8.466a7.958 7.958 0 0 0-10.654 3.627 7.958 7.958 0 0 0 3.626 10.654c13.618 6.702 28.237 10.101 43.45 10.101 54.434 0 98.721-44.285 98.721-98.72s-44.285-98.722-98.721-98.722c-51.755 0-94.332 40.036-98.398 90.763h-30.798c4.126-67.686 60.492-121.491 129.197-121.491 30.616 0 60.347 10.94 83.717 30.805 3.346 2.849 8.369 2.44 11.217-.908a7.956 7.956 0 0 0-.909-11.216c-26.243-22.309-59.635-34.595-94.025-34.595-77.483 0-140.997 60.938-145.143 137.406h-30.765c1.753-38.414 16.146-75.447 40.977-105.048 2.824-3.368 2.385-8.386-.983-11.211s-8.387-2.386-11.211.983c-27.234 32.462-42.95 73.126-44.713 115.277h-9.208l-18.955-34.575a7.959 7.959 0 0 0-6.978-4.133H7.958a7.96 7.96 0 0 0-6.979 11.784L20.102 256 .98 290.883a7.958 7.958 0 0 0 6.979 11.784h53.227a7.957 7.957 0 0 0 6.978-4.133l18.955-34.576h9.214c4.188 102.196 88.623 184.05 191.83 184.05h31.831C425.867 448.008 512 361.873 512 256S425.867 63.992 319.994 63.992zm-31.831 184.05h-35.268c3.636-16.121 18.063-28.203 35.268-28.203 19.939 0 36.162 16.222 36.162 36.161 0 19.94-16.222 36.162-36.162 36.162-17.205 0-31.632-12.082-35.268-28.204h35.268a7.958 7.958 0 0 0 0-15.916zM56.473 286.75H21.396l12.495-22.792h35.077L56.473 286.75zm8.956-38.708H33.892l-12.495-22.791h35.077l12.494 22.791h-3.539zm330.378 166.881c.233-.158.459-.326.692-.485 38.694-26.541 67.121-67.408 78.237-113.017 3.616-14.835 5.435-30.155 5.435-45.425-.003-48.851-19.458-97.472-53.338-132.666-9.409-9.774-19.799-18.626-31.025-26.252 59.26 28.382 100.278 88.951 100.278 158.923s-41.021 130.54-100.279 158.922z" fill="#000000" opacity="1" data-original="#000000" class=""></path></g></svg>