<svg xmlns="http://www.w3.org/2000/svg" version="1.1" xmlns:xlink="http://www.w3.org/1999/xlink" width="512" height="512" x="0" y="0" viewBox="0 0 48 48" style="enable-background:new 0 0 512 512" xml:space="preserve" class=""><g><path fill="#ffffff" d="M8 8h32v32H8z" opacity="1" data-original="#ffffff" class=""></path><path fill="#4d72ac" d="M40 8v3H26.41l-2.99-3z" opacity="1" data-original="#5e8bcc" class=""></path><path fill="#000000" d="M41 42H7a1 1 0 0 1-1-1V7a1 1 0 0 1 1-1h34a1 1 0 0 1 1 1v34a1 1 0 0 1-1 1zM8 40h32V8H8z" opacity="1" data-original="#4b31aa" class=""></path><circle cx="11" cy="11" r="1" fill="#b8357b" opacity="1" data-original="#f9d015" class=""></circle><circle cx="15" cy="11" r="1" fill="#b8357b" opacity="1" data-original="#f9d015" class=""></circle><circle cx="19" cy="11" r="1" fill="#b8357b" opacity="1" data-original="#f9d015" class=""></circle><path fill="#000000" d="M41 13H26a1 1 0 0 1-.71-.29l-5-5a1 1 0 0 1 1.42-1.42l4.7 4.71H41a1 1 0 0 1 0 2z" opacity="1" data-original="#4b31aa" class=""></path><path fill="#4dadb3" d="M13 25a1 1 0 0 1-.71-.29 1 1 0 0 1 0-1.42l6-6a1 1 0 0 1 1.42 1.42l-6 6A1 1 0 0 1 13 25z" opacity="1" data-original="#f7931e" class=""></path><path fill="#4dadb3" d="M19 25a1 1 0 0 1-.71-.29l-6-6a1 1 0 0 1 1.42-1.42l6 6a1 1 0 0 1 0 1.42A1 1 0 0 1 19 25zM32 25a4 4 0 1 1 4-4 4 4 0 0 1-4 4zm0-6a2 2 0 1 0 2 2 2 2 0 0 0-2-2z" opacity="1" data-original="#f7931e" class=""></path><path fill="#000000" d="M24 38a1 1 0 0 1-1-1V17a1 1 0 0 1 2 0v20a1 1 0 0 1-1 1z" opacity="1" data-original="#4b31aa" class=""></path><g fill="#5e8bcc"><path d="M20 29h-8a1 1 0 0 1 0-2h8a1 1 0 0 1 0 2zM20 33h-8a1 1 0 0 1 0-2h8a1 1 0 0 1 0 2zM20 37h-8a1 1 0 0 1 0-2h8a1 1 0 0 1 0 2zM36 29h-8a1 1 0 0 1 0-2h8a1 1 0 0 1 0 2zM36 33h-8a1 1 0 0 1 0-2h8a1 1 0 0 1 0 2zM36 37h-8a1 1 0 0 1 0-2h8a1 1 0 0 1 0 2z" fill="#4d72ac" opacity="1" data-original="#5e8bcc" class=""></path></g></g></svg>