<?xml version="1.0" encoding="UTF-8"?>
<svg id="Layer_1" xmlns="http://www.w3.org/2000/svg" version="1.1" viewBox="0 0 512 438.8">
  <!-- Generator: Adobe Illustrator 30.1.0, SVG Export Plug-In . SVG Version: 2.1.1 Build 136)  -->
  <defs>
    <style>
      .st0 {
        fill: #ffbc50;
      }

      .st1 {
        fill: #b8357b;
      }

      .st2 {
        fill: #4d72ac;
      }
    </style>
  </defs>
  <path class="st2" d="M496.8,274.5h4.7c0,40-33.7,73.2-73.7,73.2s-73.1-32.8-73.2-73.2h142.2Z"/>
  <path class="st0" d="M359.9,413.5v14.6h-207.8v-14.6c0-17.3,14-31.3,31.3-31.3h145.2c17.3,0,31.3,14,31.3,31.3h0Z"/>
  <path class="st0" d="M326.5,381.1v1h-141v-15.6c0-17.3,14-31.3,31.3-31.3h78.4c17.3,0,31.3,14,31.3,31.3v14.6Z"/>
  <path class="st0" d="M289.9,83.7c-5.1,17.8-23.1,28.7-41.3,24.8-18.1-3.9-30.2-21.1-27.6-39.4,2.6-18.4,18.9-31.6,37.4-30.3,18.5,1.3,32.8,16.7,32.9,35.2,0,3.3-.5,6.6-1.4,9.7Z"/>
  <path class="st1" d="M152.7,175.4h4.7c0,40-33.7,73.2-73.7,73.2S10.6,215.8,10.5,175.4h142.2Z"/>
  <path d="M504.4,264.4l-58.4-125.1,25.2,7.2c5.5,1.6,11.3-1.6,12.9-7.1s-1.6-11.3-7.1-12.9l-175.3-50.3v-2.3c0-20.8-14.1-39-34.2-44.2s-41.3,3.8-51.4,21.9L40.8,1.4c-5.5-1.6-11.3,1.6-12.9,7.1s1.6,11.3,7.1,12.9h0l34.6,9.9L7,165.5c-4.2,1.5-7,5.4-7,9.8,0,33.9,20.4,64.4,51.7,77.3,31.3,12.9,67.3,5.7,91.2-18.3,15.9-15.5,24.9-36.8,25-59,0-4.7-3.1-8.8-7.6-10l-58.2-124.7,108.4,31.1v2.2c0,21.2,14.6,39.6,35.3,44.5v206.6h-28.8c-23,0-42.1,18.5-42.1,41.5v6.1c-19.4,4.1-33.3,21.1-33.4,40.9v14.6c.2,5.9,5,10.6,10.8,10.7h207.8c5.9,0,10.7-4.8,10.8-10.7v-14.6c-.1-19.8-14-36.8-33.4-40.9v-6.1c0-23-19.1-41.5-42.1-41.5h-28.8V118.5c12.5-3,23.2-11,29.5-22.2l118,33.9-62.8,134.5c-4.2,1.5-7,5.4-7,9.8,0,33.9,20.4,64.4,51.7,77.3,31.3,12.9,67.3,5.7,91.2-18.3,15.9-15.5,24.9-36.8,25-59,0-4.7-3.1-8.8-7.6-10h-.2ZM83.7,50.1l53.4,114.3H30.3s53.4-114.3,53.4-114.3ZM83.7,237.7c-30.7.2-57-22-61.9-52.4h124.3c-5.3,30.3-31.6,52.4-62.4,52.4h0ZM349.9,413.5v4.4h-187.7v-4.4c0-11.5,9.8-20.6,21.3-20.6h145.2c11.5,0,21.3,9.1,21.3,20.6h-.1ZM316.5,366.5v5.5h-121v-5.5c0-11.5,9.8-20.6,21.3-20.6h78.4c11.5,0,21.3,9.1,21.3,20.6ZM256,98.8c-13.8,0-24.9-11.4-24.9-25.2s.3-4.4.9-6.5h0c3.7-13.1,17.3-20.8,30.5-17.2,13.2,3.6,21,17.1,17.5,30.4-.1.3-.2.6-.3.9v.2c-3.3,10.4-12.9,17.5-23.7,17.5h0ZM481.2,263.5h-106.7l53.4-114.3,53.4,114.3h0ZM427.8,336.7c-30.7.2-57-22-61.9-52.4h124.3c-5.3,30.3-31.6,52.4-62.4,52.4h0Z"/>
</svg>