<svg xmlns="http://www.w3.org/2000/svg" version="1.1" xmlns:xlink="http://www.w3.org/1999/xlink" width="512" height="512" x="0" y="0" viewBox="0 0 16.933 16.933" style="enable-background:new 0 0 512 512" xml:space="preserve" class=""><g><path fill="#ffbc50" d="m4.233 11.906 1.588-1.588.794.794L5.027 12.7z" opacity="1" data-original="#c8d4d9" class=""></path><path fill="#4d72ac" d="M16.14 6.614a5.82 5.82 0 0 1-5.821 5.821 5.82 5.82 0 0 1-5.821-5.82 5.82 5.82 0 0 1 5.82-5.822 5.82 5.82 0 0 1 5.822 5.821z" opacity="1" data-original="#33b9ef" class=""></path><path fill="#4d72ac" d="M5.556 12.964 2.71 15.812a1.12 1.12 0 0 1-1.588 0 1.12 1.12 0 0 1 0-1.588l2.848-2.847z" opacity="1" data-original="#33658a" class=""></path><path fill="#ebebeb" d="M15.081 6.614a4.763 4.763 0 0 1-4.762 4.763 4.763 4.763 0 0 1-4.763-4.763 4.763 4.763 0 0 1 4.763-4.762 4.763 4.763 0 0 1 4.762 4.762z" opacity="1" data-original="#dbe9ee" class=""></path><path fill="#b8357b" d="M11.642 6.614a1.323 1.323 0 0 1-1.323 1.323 1.323 1.323 0 0 1-1.323-1.323 1.323 1.323 0 0 1 1.323-1.323 1.323 1.323 0 0 1 1.323 1.323z" opacity="1" data-original="#ff6b6b" class=""></path><path d="M10.319.53c-1.407 0-2.771.487-3.859 1.38-.271.223.063.63.336.408a5.556 5.556 0 0 1 9.079 4.297 5.552 5.552 0 0 1-5.556 5.556 5.557 5.557 0 0 1-4.284-9.094c.238-.273-.186-.623-.409-.336a6.085 6.085 0 0 0 .606 8.381L5.16 12.194l-.419-.42.475-.475a.265.265 0 1 0-.375-.373l-.474.474-.21-.21a.265.265 0 0 0-.374 0L.934 14.038a1.39 1.39 0 0 0 0 1.96c.54.54 1.423.54 1.963 0l2.845-2.845a.265.265 0 0 0 0-.375l-.208-.21L6.64 11.46a6.055 6.055 0 0 0 3.679 1.24c3.358 0 6.085-2.727 6.085-6.085S13.677.529 10.32.529zm0 1.012c-2.799 0-5.073 2.275-5.073 5.074s2.274 5.072 5.073 5.072c2.798 0 5.072-2.274 5.072-5.072s-2.274-5.074-5.072-5.074zm0 .529a4.542 4.542 0 0 1 4.545 4.545 4.54 4.54 0 0 1-4.545 4.543 4.538 4.538 0 0 1-4.543-4.543 4.54 4.54 0 0 1 4.543-4.545zm-.265.84v.542A3.178 3.178 0 0 0 7.157 6.35h-.543c-.36-.008-.36.537 0 .529h.543a3.178 3.178 0 0 0 2.897 2.897v.542c-.008.361.537.361.529 0v-.54a3.176 3.176 0 0 0 2.693-2.008c.146-.336-.372-.538-.493-.193a2.643 2.643 0 0 1-2.2 1.669v-.25a.265.265 0 1 0-.53 0v.251A2.642 2.642 0 0 1 7.687 6.88h.253c.36.008.36-.537 0-.53h-.253a2.642 2.642 0 0 1 2.368-2.368v.251c-.008.361.537.361.529 0v-.25a2.642 2.642 0 0 1 2.369 2.368H12.7c-.36-.008-.36.537 0 .529.445.003.877 0 1.322 0 .361.008.361-.537 0-.53h-.542a3.177 3.177 0 0 0-2.897-2.896V2.91a.267.267 0 0 0-.282-.268.267.267 0 0 0-.247.268zm.265 2.116c-.873 0-1.588.715-1.588 1.588a1.59 1.59 0 0 0 1.588 1.586 1.59 1.59 0 0 0 1.588-1.586c0-.873-.714-1.588-1.588-1.588zm0 .53c.588 0 1.059.47 1.059 1.058 0 .588-.471 1.057-1.059 1.057-.587 0-1.059-.47-1.059-1.057s.472-1.059 1.06-1.059zm-6.35 6.195 1.213 1.213-2.66 2.66a.85.85 0 0 1-1.213 0 .85.85 0 0 1 0-1.212z" fill="#000000" opacity="1" data-original="#000000" class=""></path></g></svg>