<svg xmlns="http://www.w3.org/2000/svg" version="1.1" xmlns:xlink="http://www.w3.org/1999/xlink" width="512" height="512" x="0" y="0" viewBox="0 0 64 64" style="enable-background:new 0 0 512 512" xml:space="preserve" class=""><g><g data-name="15-Compass"><circle cx="32" cy="32" r="29" fill="#ffbc50" opacity="1" data-original="#ffb74d" class=""></circle><path fill="#fab443" d="M32 3c-.843 0-1.675.044-2.5.114a28.993 28.993 0 0 1 0 57.772c.825.07 1.657.114 2.5.114a29 29 0 0 0 0-58Z" opacity="1" data-original="#ffa726" class=""></path><circle cx="32" cy="32" r="23" fill="#ffffff" opacity="1" data-original="#eeeeee" class=""></circle><path fill="#ebebeb" d="M14 32A23.001 23.001 0 0 1 34.5 9.138 23.244 23.244 0 0 0 32 9a23 23 0 0 0 0 46 23.244 23.244 0 0 0 2.5-.138A23.001 23.001 0 0 1 14 32Z" opacity="1" data-original="#e0e0e0" class=""></path><path fill="#b8357b" d="M44.5 19.5a1.006 1.006 0 0 0-1.14-.199L27 27l10 10 7.699-16.36a1.006 1.006 0 0 0-.199-1.14Z" opacity="1" data-original="#ff8a65" class=""></path><path fill="#4d72ac" d="M19.5 44.5a1.006 1.006 0 0 0 1.14.199L37 37 27 27l-7.699 16.36a1.006 1.006 0 0 0 .199 1.14Z" opacity="1" data-original="#64b5f6" class=""></path><path fill="#a52a6c" d="M44.7 20.64 37 37l-5-5 12.5-12.5a1.009 1.009 0 0 1 .2 1.14Z" opacity="1" data-original="#ff7043" class=""></path><path fill="#2959a5" d="m37 37-16.36 7.7a1.009 1.009 0 0 1-1.14-.2L32 32Z" opacity="1" data-original="#42a5f5" class=""></path><circle cx="32" cy="32" r="3" fill="#ffffff" opacity="1" data-original="#eeeeee" class=""></circle><path fill="#ebebeb" d="M32 29a2.97 2.97 0 0 0-1.5.416 2.975 2.975 0 0 1 0 5.168A2.97 2.97 0 0 0 32 35a3 3 0 0 0 0-6Z" opacity="1" data-original="#e0e0e0" class=""></path><path d="M32 2a30 30 0 1 0 30 30A30.034 30.034 0 0 0 32 2Zm0 58a28 28 0 1 1 28-28 28.031 28.031 0 0 1-28 28Zm0-52a24 24 0 1 0 24 24A24.027 24.027 0 0 0 32 8Zm0 46a22 22 0 1 1 22-22 22.025 22.025 0 0 1-22 22Zm13.207-35.207a2.011 2.011 0 0 0-2.272-.397l-16.36 7.7a1.001 1.001 0 0 0-.48.478l-7.698 16.36a2.007 2.007 0 0 0 2.669 2.67l16.36-7.699a1.002 1.002 0 0 0 .479-.48l7.699-16.36a2.01 2.01 0 0 0-.397-2.272Zm-25 24.993 7.092-15.073 1.268 1.268A3.955 3.955 0 0 0 28 32a4.004 4.004 0 0 0 4 4 3.956 3.956 0 0 0 2.02-.567l1.266 1.267ZM32 34a2 2 0 1 1 2-2 2.002 2.002 0 0 1-2 2Zm4.7 1.287-1.267-1.268A3.955 3.955 0 0 0 36 32a4.005 4.005 0 0 0-4-4 3.955 3.955 0 0 0-2.02.567l-1.267-1.268 15.073-7.093.007.001v.007ZM31 17v-4a1 1 0 0 1 2 0v4a1 1 0 0 1-2 0Zm2 30v4a1 1 0 0 1-2 0v-4a1 1 0 0 1 2 0Zm19-15a1 1 0 0 1-1 1h-4a1 1 0 0 1 0-2h4a1 1 0 0 1 1 1Zm-34 0a1 1 0 0 1-1 1h-4a1 1 0 0 1 0-2h4a1 1 0 0 1 1 1Zm28.142 12.727a1 1 0 1 1-1.414 1.415l-2.829-2.829a1 1 0 1 1 1.414-1.414ZM17.858 19.273a1 1 0 0 1 1.414-1.414l2.829 2.828a1 1 0 1 1-1.414 1.415Z" fill="#000000" opacity="1" data-original="#000000" class=""></path></g></g></svg>