<svg xmlns="http://www.w3.org/2000/svg" version="1.1" xmlns:xlink="http://www.w3.org/1999/xlink" width="512" height="512" x="0" y="0" viewBox="0 0 512.001 512.001" style="enable-background:new 0 0 512 512" xml:space="preserve" class=""><g><circle cx="396.299" cy="316.415" r="108.103" style="" fill="#4dadb3" data-original="#65b4bb" class="" opacity="1"></circle><path d="M225.748 171.165v145.257l-167.65-58.153-25.341-8.797s65.922-110.628 67.83-113.713c11.893-19.308 33.224-32.184 57.571-32.184 1.931 0 3.85.08 5.735.24 34.64 2.913 61.855 31.955 61.855 67.35z" style="" fill="#4dadb3" data-original="#65b4bb" class="" opacity="1"></path><path d="m163.893 103.814-46.247 104.501-59.548 49.954-25.341-8.797s65.922-110.628 67.83-113.713c11.893-19.308 33.224-32.184 57.571-32.184 1.93-.001 3.85.079 5.735.239zM173.637 105.345c1.727-2.902 2.868-4.806 3.008-5.041 4.676-7.579 13.043-12.631 22.585-12.631 14.653 0 26.521 11.868 26.521 26.521v56.979" style="" fill="#38a0a7" data-original="#57a3a7" class="" opacity="1"></path><circle cx="117.643" cy="316.415" r="108.103" style="" fill="#4dadb3" data-original="#65b4bb" class="" opacity="1"></circle><path d="M288.193 171.173v-56.979c0-14.653 11.868-26.521 26.521-26.521 9.541 0 17.908 5.053 22.585 12.631.141.235 1.281 2.139 3.008 5.041" style="" fill="#38a0a7" data-original="#57a3a7" class="" opacity="1"></path><path d="m481.188 249.472-192.991 66.951V171.165c0-22.907 11.402-43.152 28.837-55.377 10.968-7.7 24.335-12.213 38.754-12.213 24.347 0 45.677 12.876 57.571 32.184 1.907 3.084 67.829 113.713 67.829 113.713zM225.747 252.184h62.442v32.902h-62.442z" style="" fill="#4dadb3" data-original="#65b4bb" class="" opacity="1"></path><path d="M225.747 184.08h62.442v68.116h-62.442zM332.937 228.827l-44.74 73.428v-131.09c0-22.907 11.402-43.152 28.837-55.377l15.903 113.039z" style="" fill="#38a0a7" data-original="#57a3a7" class="" opacity="1"></path><circle cx="396.299" cy="316.415" r="71.235" style="" fill="#8cb2ed" data-original="#a0dbfd" class="" opacity="1"></circle><circle cx="117.643" cy="316.415" r="71.235" style="" fill="#8cb2ed" data-original="#a0dbfd" class="" opacity="1"></circle><path d="M117.646 245.182c-4.291 0-8.485.401-12.568 1.128 33.347 5.939 58.672 35.058 58.672 70.112s-25.325 64.173-58.672 70.112a71.582 71.582 0 0 0 12.568 1.128c39.344 0 71.239-31.895 71.239-71.239 0-39.346-31.895-71.241-71.239-71.241z" style="" fill="#4d72ac" data-original="#c1e9fd" class="" opacity="1"></path><path d="M117.646 387.661c4.291 0 8.485-.401 12.567-1.128-33.347-5.939-58.672-35.058-58.672-70.112s25.325-64.173 58.672-70.112a71.579 71.579 0 0 0-12.567-1.128c-39.344 0-71.239 31.895-71.239 71.239s31.894 71.241 71.239 71.241zM396.298 387.661c4.291 0 8.485-.401 12.568-1.128-33.347-5.939-58.672-35.058-58.672-70.112s25.325-64.173 58.672-70.112a71.582 71.582 0 0 0-12.568-1.128c-39.344 0-71.239 31.895-71.239 71.239-.001 39.345 31.895 71.241 71.239 71.241z" style="" fill="#4d72ac" data-original="#87cee9" class="" opacity="1"></path><path d="M396.298 245.182c-4.291 0-8.485.401-12.567 1.128 33.347 5.939 58.672 35.058 58.672 70.112s-25.325 64.173-58.672 70.112a71.579 71.579 0 0 0 12.567 1.128c39.344 0 71.239-31.895 71.239-71.239.001-39.346-31.894-71.241-71.239-71.241z" style="" fill="#4d72ac" data-original="#c1e9fd" class="" opacity="1"></path><path d="M419.686 131.162c-13.99-22.704-38.24-36.258-64.869-36.258-3.799 0-7.53.288-11.182.828a.197.197 0 0 0-.016-.026c-6.453-10.457-17.622-16.701-29.876-16.701-19.348 0-35.09 15.741-35.09 35.09v61.312h-45.306v-61.312c0-19.348-15.741-35.09-35.09-35.09-12.232 0-23.38 6.221-29.89 16.727a76.387 76.387 0 0 0-11.184-.828c-26.629 0-50.879 13.555-64.87 36.26-.193.313-.78 1.267-14.882 24.908a8.568 8.568 0 0 0 14.717 8.779c11.604-19.452 14.43-24.168 14.757-24.699 10.846-17.602 29.642-28.111 50.279-28.111 32.548 0 59.026 26.479 59.026 59.026V255.511c-20.53-33.481-57.467-55.864-99.536-55.864-18.999 0-36.95 4.568-52.817 12.657 4.075-6.837 8.38-14.06 12.7-21.304a8.569 8.569 0 0 0-14.72-8.776c-18.206 30.534-46.861 76.35-50.481 83.914C4.08 281.345 0 298.365 0 316.322c0 64.334 52.34 116.674 116.674 116.674s116.673-52.34 116.673-116.674v-22.767h45.306v22.767c0 64.334 52.34 116.674 116.673 116.674 64.334 0 116.674-52.34 116.674-116.674 0-18.451-4.307-35.913-11.968-51.439-3.501-7.098-78.446-130.636-80.346-133.721zm-14.591 8.991c1.028 1.669 22.444 37.584 43.048 72.152-15.868-8.09-33.819-12.658-52.818-12.658-42.069 0-79.006 22.384-99.536 55.864V171.067c0-32.548 26.479-59.026 59.026-59.026 20.639.001 39.434 10.51 50.28 28.112zM295.79 114.095c0-9.899 8.053-17.952 17.952-17.952 4.509 0 8.729 1.665 11.956 4.56-11.731 4.873-21.99 12.593-29.908 22.298v-8.906zm-17.138 78.448v50.973h-45.306v-50.973h45.306zm-92.339-91.836a17.814 17.814 0 0 1 11.945-4.564c9.899 0 17.952 8.053 17.952 17.952V123c-7.916-9.703-18.17-17.42-29.897-22.293zm-69.639 315.15c-54.885 0-99.537-44.651-99.537-99.536s44.652-99.537 99.537-99.537 99.536 44.652 99.536 99.537-44.652 99.536-99.536 99.536zm116.674-139.439v-15.764h45.306v15.764h-45.306zm161.979 139.439c-54.885 0-99.536-44.652-99.536-99.537s44.652-99.537 99.536-99.537c54.885 0 99.537 44.652 99.537 99.537s-44.653 99.537-99.537 99.537z" fill="#000000" opacity="1" data-original="#000000" class=""></path><path d="M470.448 289.32a8.57 8.57 0 0 0-16.126 5.798 62.505 62.505 0 0 1 3.675 21.203c0 34.557-28.113 62.671-62.671 62.671s-62.671-28.113-62.671-62.671 28.113-62.671 62.671-62.671c17.343 0 34.069 7.286 45.891 19.989a8.57 8.57 0 0 0 12.546-11.676c-15.051-16.174-36.351-25.451-58.437-25.451-44.007 0-79.808 35.801-79.808 79.808s35.801 79.808 79.808 79.808 79.808-35.801 79.808-79.808a79.542 79.542 0 0 0-4.686-27zM116.674 236.514c-44.007 0-79.808 35.801-79.808 79.808s35.801 79.808 79.808 79.808 79.808-35.801 79.808-79.808-35.802-79.808-79.808-79.808zm0 142.478c-34.557 0-62.671-28.113-62.671-62.671s28.113-62.671 62.671-62.671 62.671 28.113 62.671 62.671-28.115 62.671-62.671 62.671z" fill="#000000" opacity="1" data-original="#000000" class=""></path></g></svg>