<svg xmlns="http://www.w3.org/2000/svg" version="1.1" xmlns:xlink="http://www.w3.org/1999/xlink" width="512" height="512" x="0" y="0" viewBox="0 0 512 512" style="enable-background:new 0 0 512 512" xml:space="preserve" class=""><g><path fill="#8c9bb2" d="M483.73 164.167v304.13H28.27v-304.13c0-15.62 12.67-28.29 28.3-28.29h398.86c15.63 0 28.3 12.67 28.3 28.29z" opacity="1" data-original="#dfeaef" class=""></path><path fill="#677994" d="M28.27 423.127h455.46v45.17H28.27z" opacity="1" data-original="#b4d0d5" class=""></path><path fill="#4dadb3" d="M448.729 170.876v235.238H63.272V170.876z" opacity="1" data-original="#6ec17d" class=""></path><path fill="#8c9bb2" d="M504.5 441.114H7.5v16.622c0 22.722 18.42 41.141 41.141 41.141h414.717c22.722 0 41.141-18.42 41.141-41.141v-16.622z" opacity="1" data-original="#dfeaef" class=""></path><path fill="#677994" d="M282.952 469.995h-53.905c-15.483 0-28.035-12.552-28.035-28.035v-.847h109.975v.847c0 15.484-12.551 28.035-28.035 28.035zM93.601 498.877h-44.96c-22.73 0-41.15-18.42-41.15-41.14v-16.62h44.96v16.62c0 22.72 18.42 41.14 41.15 41.14z" opacity="1" data-original="#b4d0d5" class=""></path><path fill="#4d72ac" d="M366.55 164.417v42.25c0 25.23-15.07 48.14-38.38 57.82-46.14 19.18-98.2 19.18-144.34 0-23.31-9.68-38.38-32.59-38.38-57.82v-42.25z" opacity="1" data-original="#665e66" class=""></path><path fill="#3b609a" d="M284.976 276.63c-33.92 5.28-68.97 1.24-101.15-12.14-23.31-9.68-38.38-32.59-38.38-57.82v-42.25h57.95v42.25c0 25.23 15.07 48.14 38.38 57.82 13.97 5.81 28.48 9.86 43.2 12.14z" opacity="1" data-original="#454045" class=""></path><path fill="#3b609a" d="M366.55 164.417v16.94l-90.49 47.94a42.892 42.892 0 0 1-40.12 0l-90.49-47.94v-16.94z" opacity="1" data-original="#454045" class=""></path><path fill="#4d72ac" d="M421.086 94.94 276.057 18.111a42.848 42.848 0 0 0-40.115 0L90.914 94.94c-16.285 8.627-16.285 31.958 0 40.585l145.029 76.829a42.848 42.848 0 0 0 40.115 0l145.029-76.829c16.284-8.627 16.284-31.957-.001-40.585z" opacity="1" data-original="#665e66" class=""></path><path fill="#ffbc50" d="m320.515 288.497-16.275 28.188c-5.873 10.172 1.468 22.887 13.214 22.887h6.121c11.746 0 19.087-12.715 13.214-22.887z" opacity="1" data-original="#f4dd45" class=""></path><path d="M504.5 433.613h-13.27V164.167c0-19.735-16.06-35.79-35.8-35.79h-17.617a30.445 30.445 0 0 0 2.988-13.145 30.405 30.405 0 0 0-16.2-26.923l-98.07-51.95a7.5 7.5 0 0 0-7.021 13.255l98.068 51.949c5.149 2.729 8.223 7.839 8.223 13.669s-3.074 10.939-8.221 13.667l-95.332 50.502-60.608-69.114a7.5 7.5 0 0 0-11.278 9.89l58.264 66.441-36.072 19.109a35.37 35.37 0 0 1-33.102.002l-145.03-76.828c-5.148-2.729-8.223-7.839-8.223-13.668s3.074-10.939 8.221-13.668l145.027-76.828a35.361 35.361 0 0 1 33.101-.002l20.76 11a7.5 7.5 0 1 0 7.024-13.254l-20.764-11.002a50.351 50.351 0 0 0-47.139.001L87.397 88.311A30.403 30.403 0 0 0 71.2 115.233c0 4.645 1.062 9.114 2.988 13.145H56.57c-19.74 0-35.8 16.055-35.8 35.79v269.446H7.5a7.5 7.5 0 0 0-7.5 7.5v16.623c0 26.821 21.82 48.642 48.641 48.642h414.717c26.821 0 48.642-21.82 48.642-48.642v-16.623a7.5 7.5 0 0 0-7.5-7.501zM320.516 303.497l9.779 16.938c2.021 3.501.673 6.592 0 7.758s-2.676 3.879-6.719 3.879h-6.121c-4.043 0-6.045-2.713-6.719-3.879-.674-1.167-2.021-4.257 0-7.758zm7.5-110.176 31.034-16.44v29.783c0 21.39-12.088 40.566-31.034 49.672zm-72.017 31.521a50.383 50.383 0 0 0 23.572-5.857l33.445-17.717v60.871c-40.978 13.574-86.315 12.05-126.312-4.574-20.505-8.522-33.754-28.502-33.754-50.9V176.88l79.483 42.106a50.34 50.34 0 0 0 23.566 5.856zM35.77 164.167c0-11.464 9.331-20.79 20.8-20.79h33.137l37.753 20H63.27a7.5 7.5 0 0 0-7.5 7.5v235.24a7.5 7.5 0 0 0 7.5 7.5h39.59a7.5 7.5 0 0 0 0-15H70.77v-220.24h67.18v28.287c0 28.479 16.877 53.895 42.998 64.752 23.848 9.912 49.45 14.868 75.053 14.868 19.254 0 38.507-2.805 57.016-8.411v8.614l-15.27 26.448c-4.114 7.125-4.114 15.633 0 22.758s11.481 11.379 19.709 11.379h6.121c8.228 0 15.595-4.254 19.709-11.379s4.114-15.633 0-22.758l-15.27-26.448v-13.854c1.014-.401 2.029-.798 3.037-1.217 26.12-10.857 42.997-36.273 42.997-64.752v-28.287h67.18v220.24H132.86a7.5 7.5 0 0 0 0 15h315.87a7.5 7.5 0 0 0 7.5-7.5v-235.24a7.5 7.5 0 0 0-7.5-7.5h-64.191l37.753-20h33.137c11.469 0 20.8 9.326 20.8 20.79v269.446H35.77zm266.61 284.45c-2.771 8.065-10.434 13.878-19.427 13.878h-53.905c-8.994 0-16.656-5.813-19.428-13.878zM497 457.736c0 18.55-15.092 33.642-33.642 33.642H48.641c-18.55 0-33.641-15.092-33.641-33.642v-9.123h13.193c.026 0 .051.004.077.004h165.877c3.126 16.422 17.582 28.878 34.901 28.878h53.905c17.318 0 31.774-12.457 34.9-28.878H483.73c.026 0 .051-.004.077-.004H497z" fill="#000000" opacity="1" data-original="#000000" class=""></path><path d="M258.268 371.117a7.5 7.5 0 0 0-7.5-7.5H100.623a7.5 7.5 0 0 0 0 15h150.146a7.5 7.5 0 0 0 7.499-7.5zM100.623 347.073h100.39a7.5 7.5 0 0 0 0-15h-100.39a7.5 7.5 0 0 0 0 15z" fill="#000000" opacity="1" data-original="#000000" class=""></path></g></svg>