<?xml version="1.0" encoding="UTF-8"?>
<svg width="1200pt" height="1200pt" version="1.1" viewBox="0 0 1200 1200" xmlns="http://www.w3.org/2000/svg">
 <path d="m1077.5 858.36-138.91 138.9c-1.8711 1.7891-3.8516 2.1719-5.1953 2.1719-1.2109 0-4.1992-0.3125-6.1914-3.1914-0.22656-0.35938-0.43359-0.69531-0.76953-1.0195l-58.453-73.57c-1.668-2.0625-1.668-4.2734-1.5586-5.3867 0.12109-1.1289 0.67188-3.2539 2.7617-4.9062 1.668-1.3086 3.4336-1.5977 4.5352-1.5977 1.1055 0 3.7578 0.26562 5.7461 2.7734l39.781 49.969c3.7578 4.7031 9.2773 7.5977 15.254 7.9453 6.0703 0.34766 11.93-1.9062 16.129-6.1328l116.36-116.4c1.8711-1.8711 4.0938-2.1602 5.1953-2.1602 1.2227 0 3.4336 0.28906 5.3047 2.1602 2.875 2.8711 2.875 7.5625 0.007813 10.441zm-40.332-40.297-99.684 99.684-24.973-31.477c-9.5039-11.879-23.543-18.695-38.785-18.695-11.172 0-22.105 3.8047-30.719 10.754-10.391 8.2305-16.922 19.992-18.469 33.145-1.5469 13.152 2.2188 26.09 10.5 36.422l58.02 73.129c9.3945 12.91 24.312 20.594 40.332 20.594 13.164 0 25.645-5.1484 35.027-14.508l138.91-138.91c19.332-19.32 19.332-50.785 0-70.129-9.3828-9.3477-21.875-14.496-35.148-14.496-13.137-0.007813-25.617 5.1406-35.012 14.488zm-437.17-254.62c-61.234 0-111.07-49.789-111.07-111s49.836-111.01 111.07-111.01c61.223 0 110.94 49.812 110.94 111.01 0 61.211-49.719 111-110.94 111zm0-264.21c-84.551 0-153.28 68.734-153.28 153.2 0 84.48 68.734 153.2 153.28 153.2 84.422 0 153.17-68.734 153.17-153.2 0-84.465-68.746-153.2-153.17-153.2zm232.95 174.5v-42.602h-21.434c-10.055 0-18.781-7.1055-20.773-16.98-4.9688-24.973-14.594-48.371-28.738-69.574-5.6406-8.3633-4.5352-19.512 2.543-26.629l15.254-15.191-30.18-30.109-15.145 15.18c-7.1875 7.1172-18.238 8.2188-26.641 2.6289-21.215-14.172-44.652-23.867-69.625-28.836-9.8281-1.9688-17.016-10.621-17.016-20.688v-21.457h-42.551v21.457c0 10.055-7.0664 18.719-17.016 20.688-24.852 4.9805-48.289 14.676-69.504 28.836-8.3984 5.5781-19.559 4.4883-26.641-2.6289l-15.254-15.18-30.059 30.109 15.145 15.191c7.1875 7.1172 8.2812 18.266 2.6523 26.617-14.148 21.227-23.867 44.641-28.836 69.59-1.9922 9.8633-10.609 16.98-20.676 16.98h-21.434v42.602h21.434c10.066 0 18.684 7.1055 20.676 16.969 4.9688 24.973 14.699 48.383 28.836 69.602 5.6406 8.3633 4.5352 19.512-2.6523 26.629l-15.145 15.18 30.059 30.133 15.254-15.191c7.0781-7.1172 18.238-8.2188 26.641-2.6289 21.215 14.172 44.652 23.867 69.504 28.848 9.9492 1.9688 17.016 10.633 17.016 20.688v21.457h42.551v-21.457c0-10.066 7.1875-18.719 17.016-20.688 24.973-4.9805 48.406-14.688 69.625-28.848 8.3984-5.5938 19.453-4.4883 26.641 2.6289l15.145 15.168 30.18-30.109-15.254-15.18c-7.0781-7.1172-8.1836-18.254-2.543-26.629 14.148-21.238 23.762-44.652 28.738-69.59 1.9922-9.8633 10.727-16.98 20.773-16.98zm21.105-84.801h-25.969c-5.0898-18.492-12.48-36.215-21.875-52.934l18.336-18.324c3.8633-3.9609 6.0859-9.3242 6.0859-14.914 0-5.6055-2.2188-10.969-6.0859-14.914l-60-59.965c-3.9844-3.9492-9.2773-6.1797-14.914-6.1797-5.5312 0-10.945 2.2305-14.914 6.1797l-18.348 18.312c-16.691-9.4805-34.355-16.812-52.934-21.949v-25.895c0-11.652-9.3828-21.086-21.109-21.086h-84.758c-11.617 0-21.121 9.4336-21.121 21.086v25.895c-18.445 5.125-36.133 12.469-52.934 21.949l-18.336-18.312c-8.1836-8.2422-21.551-8.2422-29.734 0l-60.012 59.965c-8.2695 8.2305-8.2695 21.574 0 29.832l18.352 18.32c-9.5039 16.715-16.801 34.441-21.996 52.934h-25.848c-11.723 0-21.109 9.457-21.109 21.098v84.793c0 11.652 9.3828 21.098 21.109 21.098h25.848c5.1953 18.504 12.492 36.215 21.996 52.934l-18.348 18.324c-8.2695 8.2305-8.2695 21.59 0 29.82l60.012 59.953c8.1836 8.2422 21.551 8.2422 29.734 0.011719l18.336-18.324c16.801 9.4922 34.488 16.824 52.934 21.938v25.906c0 11.652 9.5039 21.098 21.121 21.098h84.758c11.723 0 21.109-9.4453 21.109-21.098v-25.906c18.574-5.1133 36.254-12.469 52.934-21.938l18.348 18.312c8.2812 8.2422 21.551 8.2422 29.832 0l60-59.953c8.1836-8.2305 8.1836-21.59 0-29.82l-18.336-18.324c9.5039-16.727 16.789-34.441 21.875-52.934h25.969c11.617 0 21-9.457 21-21.098v-84.793c-0.007812-11.645-9.3906-21.098-21.008-21.098zm123.67 316.1c71.82 0 135.71 35.051 175.37 88.957l0.003907-653.08c0-21.434-17.461-38.855-38.891-38.855h-1028.5c-21.445 0-38.785 17.426-38.785 38.855v661.91h749.26c39-58.879 105.85-97.785 181.56-97.785zm0 392.93c96.695 0 175.37-78.66 175.37-175.37 0-96.695-78.684-175.38-175.37-175.38s-175.38 78.684-175.38 175.38c-0.011719 96.707 78.684 175.37 175.38 175.37zm-581.06-154.27h364.57c3.4336 36.383 16.02 70.176 35.258 99.133h-457.63zm-349.77-81.07v-17.629h727.59c-6.8398 17.844-11.375 36.781-13.246 56.52h-675.54c-21.457 0-38.797-17.438-38.797-38.891zm1148.4-721.71c0-44.688-36.348-81.047-81.109-81.047h-1028.5c-44.652 0-81.012 36.359-81.012 81.047v721.71c0 44.699 36.359 81.07 81.012 81.07h262.13l-63.863 109.6c-3.7578 6.5273-3.7578 14.605 0 21.145 3.7578 6.5273 10.715 10.559 18.227 10.559h531c38.461 34.297 89.074 55.141 144.55 55.141 120.01 0 217.59-97.586 217.59-217.55 0-12.758-1.1055-25.262-3.2031-37.43 2.1016-7.3086 3.2031-14.855 3.2031-22.547v-721.7z" fill="#600a68" fill-rule="evenodd"/>
</svg>
