<svg xmlns="http://www.w3.org/2000/svg" version="1.1" xmlns:xlink="http://www.w3.org/1999/xlink" width="512" height="512" x="0" y="0" viewBox="0 0 512 512" style="enable-background:new 0 0 512 512" xml:space="preserve" class=""><g><path fill="#374151" fill-rule="evenodd" d="M194.937 410.536h122.127v71.175H194.937z" clip-rule="evenodd" opacity="1" data-original="#375d78" class=""></path><path fill="#374151" fill-rule="evenodd" d="M289.877 410.536h27.186v71.175h-27.186z" clip-rule="evenodd" opacity="1" data-original="#2f4f66" class=""></path><path fill="#ffbc50" fill-rule="evenodd" d="M7.144 86.296h497.712v324.24H7.144z" clip-rule="evenodd" opacity="1" data-original="#77e4f2" class=""></path><path fill="#407093" fill-rule="evenodd" d="M504.856 370.331H7.144v40.205h497.712z" clip-rule="evenodd" opacity="1" data-original="#407093" class=""></path><path fill="#ebebeb" fill-rule="evenodd" d="M34.905 90.898h442.159V339.21H34.905z" clip-rule="evenodd" opacity="1" data-original="#f1f1f9" class=""></path><path fill="#4d72ac" fill-rule="evenodd" d="M34.905 22.811h442.159v68.087H34.905z" clip-rule="evenodd" opacity="1" data-original="#31a7fb" class=""></path><path fill="#4dadb3" fill-rule="evenodd" d="M368.954 122.686v15.137a77.286 77.286 0 0 1 26.279 10.868l10.687-10.687a93.334 93.334 0 0 1 22.766 22.736l-10.717 10.717a76.82 76.82 0 0 1 10.899 26.248h15.137a94.034 94.034 0 0 1 1.393 16.106c0 5.48-.484 10.838-1.393 16.076h-15.137c-1.998 9.506-5.752 18.377-10.899 26.279l10.717 10.687a92.813 92.813 0 0 1-22.766 22.736l-10.687-10.687c-7.871 5.147-16.742 8.871-26.279 10.899v15.107c-5.207.939-10.596 1.423-16.076 1.423s-10.868-.484-16.076-1.423v-15.107c-9.506-2.028-18.407-5.752-26.278-10.899l-10.687 10.687a92.813 92.813 0 0 1-22.766-22.736l10.717-10.717a76.82 76.82 0 0 1-10.899-26.248h-15.137a93.939 93.939 0 0 1-1.393-16.076c0-5.51.484-10.868 1.393-16.106h15.137a76.827 76.827 0 0 1 10.899-26.248l-10.717-10.717a93.334 93.334 0 0 1 22.766-22.736l10.687 10.687a77.51 77.51 0 0 1 26.278-10.868v-15.137c5.208-.908 10.596-1.393 16.076-1.393s10.869.484 16.076 1.392z" clip-rule="evenodd" opacity="1" data-original="#fd4755" class=""></path><path fill="#ffffff" fill-rule="evenodd" d="M352.878 167.553c25.552 0 46.259 20.708 46.259 46.259 0 25.521-20.708 46.229-46.259 46.229s-46.229-20.708-46.229-46.229c0-25.551 20.678-46.259 46.229-46.259z" clip-rule="evenodd" opacity="1" data-original="#ffffff" class=""></path><path d="M504.046 83.122h-20.247V27.296a7.453 7.453 0 0 0-7.454-7.453H35.626a7.453 7.453 0 0 0-7.454 7.453v55.826H7.954A7.453 7.453 0 0 0 .5 90.575V413.76a7.453 7.453 0 0 0 7.454 7.453h179.727v56.037h-41.642a7.453 7.453 0 1 0 0 14.906h219.922a7.453 7.453 0 1 0 0-14.906h-41.643v-56.037h179.727a7.453 7.453 0 0 0 7.454-7.453V90.576a7.453 7.453 0 0 0-7.453-7.454zM43.08 102.616h425.812v232.596H43.08zm0-67.866h425.812v52.959H43.08zM28.172 98.029v244.636a7.453 7.453 0 0 0 7.454 7.453h440.72a7.453 7.453 0 0 0 7.454-7.453V98.029h12.793v268.204H15.408V98.029zM309.411 477.25H202.589v-56.037h106.822zM15.408 406.306V381.14h481.185v25.167H15.408zm75.53-345.061a7.453 7.453 0 0 1-7.454 7.453h-.362a7.453 7.453 0 1 1 0-14.906h.362a7.453 7.453 0 0 1 7.454 7.453zm345.394 0a7.453 7.453 0 0 1-7.454 7.453H205.395a7.453 7.453 0 1 1 0-14.906h223.484a7.453 7.453 0 0 1 7.453 7.453zm-319.955 0a7.453 7.453 0 0 1-7.454 7.453h-.362a7.453 7.453 0 1 1 0-14.906h.362a7.453 7.453 0 0 1 7.454 7.453zm25.438 0a7.453 7.453 0 0 1-7.454 7.453h-.362a7.453 7.453 0 1 1 0-14.906h.362a7.453 7.453 0 0 1 7.454 7.453zM61.952 179.164a7.453 7.453 0 0 1-.003-10.543l29.783-29.783a7.453 7.453 0 0 1 10.541 10.54l-24.51 24.51 24.507 24.483a7.452 7.452 0 0 1 .005 10.54 7.43 7.43 0 0 1-5.273 2.186 7.43 7.43 0 0 1-5.268-2.181zm104.375-29.785a7.455 7.455 0 0 1 10.541-10.542l29.784 29.783a7.457 7.457 0 0 1-.003 10.544l-29.784 29.754a7.432 7.432 0 0 1-5.268 2.18 7.427 7.427 0 0 1-5.273-2.186 7.453 7.453 0 0 1 .005-10.541l24.508-24.483zm-53.289 53.919 28.909-64.908a7.453 7.453 0 1 1 13.617 6.065l-28.909 64.908a7.454 7.454 0 0 1-6.812 4.423 7.42 7.42 0 0 1-3.028-.647 7.452 7.452 0 0 1-3.777-9.841zm330.354-9.128h-9.263a83.539 83.539 0 0 0-7.294-17.563l6.559-6.558a7.457 7.457 0 0 0 .83-9.554c-6.682-9.517-14.929-17.753-24.509-24.479a7.457 7.457 0 0 0-9.554.83l-6.538 6.539a83.999 83.999 0 0 0-17.583-7.278v-9.259a7.454 7.454 0 0 0-6.173-7.343 101.107 101.107 0 0 0-34.608 0 7.454 7.454 0 0 0-6.173 7.343v9.259a84.026 84.026 0 0 0-17.584 7.277l-6.537-6.537a7.456 7.456 0 0 0-9.554-.83c-9.583 6.728-17.829 14.964-24.509 24.48a7.454 7.454 0 0 0 .83 9.553l6.559 6.559a83.5 83.5 0 0 0-7.294 17.563h-9.264a7.454 7.454 0 0 0-7.344 6.179 101.652 101.652 0 0 0-1.498 17.327c0 5.748.504 11.568 1.498 17.297a7.454 7.454 0 0 0 7.344 6.18h9.264a83.47 83.47 0 0 0 7.294 17.562l-6.559 6.559a7.455 7.455 0 0 0-.83 9.553 99.545 99.545 0 0 0 24.524 24.49 7.455 7.455 0 0 0 9.539-.84l6.53-6.53a84.2 84.2 0 0 0 17.591 7.289v9.24a7.454 7.454 0 0 0 6.132 7.335 97.997 97.997 0 0 0 17.346 1.536c5.853 0 11.688-.517 17.346-1.536a7.455 7.455 0 0 0 6.132-7.335v-9.241a84.112 84.112 0 0 0 17.59-7.288l6.531 6.531a7.452 7.452 0 0 0 9.539.839 99.541 99.541 0 0 0 24.524-24.489 7.455 7.455 0 0 0-.83-9.554l-6.559-6.558a83.606 83.606 0 0 0 7.294-17.562h9.263a7.454 7.454 0 0 0 7.344-6.18 101.44 101.44 0 0 0 1.499-17.297c0-5.765-.504-11.595-1.499-17.327a7.458 7.458 0 0 0-7.346-6.182zm-6.497 32.077h-8.59a7.454 7.454 0 0 0-7.294 5.92 68.844 68.844 0 0 1-9.809 23.616 7.455 7.455 0 0 0 .968 9.35l6.094 6.092a84.535 84.535 0 0 1-12.143 12.13l-6.071-6.072a7.454 7.454 0 0 0-9.35-.968c-7.187 4.699-15.148 8-23.664 9.812a7.455 7.455 0 0 0-5.903 7.29v8.586c-5.663.58-11.478.58-17.139 0v-8.586a7.454 7.454 0 0 0-5.903-7.29c-8.516-1.811-16.479-5.113-23.665-9.812a7.457 7.457 0 0 0-9.35.968l-6.071 6.071a84.528 84.528 0 0 1-12.142-12.13l6.093-6.093a7.453 7.453 0 0 0 .968-9.348 68.882 68.882 0 0 1-9.807-23.617 7.454 7.454 0 0 0-7.294-5.92h-8.59a85.653 85.653 0 0 1 0-17.17h8.59a7.454 7.454 0 0 0 7.294-5.921 68.885 68.885 0 0 1 9.807-23.616 7.453 7.453 0 0 0-.968-9.349l-6.091-6.091a85.096 85.096 0 0 1 12.148-12.124l6.064 6.064a7.453 7.453 0 0 0 9.332.979c7.277-4.73 15.237-8.023 23.66-9.787a7.455 7.455 0 0 0 5.926-7.295v-8.592a85.805 85.805 0 0 1 17.139 0v8.592a7.454 7.454 0 0 0 5.926 7.295c8.422 1.764 16.382 5.057 23.659 9.787a7.454 7.454 0 0 0 9.332-.979l6.065-6.065a85.155 85.155 0 0 1 12.148 12.125l-6.092 6.091a7.456 7.456 0 0 0-.968 9.35 68.896 68.896 0 0 1 9.809 23.617 7.453 7.453 0 0 0 7.294 5.92h8.589a85.88 85.88 0 0 1 .434 8.6 86.609 86.609 0 0 1-.435 8.57zm-84.332-62.133c-29.535 0-53.563 24.028-53.563 53.562 0 29.518 24.028 53.532 53.563 53.532s53.563-24.015 53.563-53.532c0-29.534-24.028-53.562-53.563-53.562zm0 92.188c-21.315 0-38.655-17.327-38.655-38.625 0-21.315 17.34-38.656 38.655-38.656s38.655 17.341 38.655 38.656c0 21.298-17.34 38.625-38.655 38.625zm-124.928-14.274a7.453 7.453 0 0 1-7.454 7.453H67.22a7.453 7.453 0 1 1 0-14.906h152.961a7.453 7.453 0 0 1 7.454 7.453zm0 29.814a7.453 7.453 0 0 1-7.454 7.453H67.22a7.453 7.453 0 1 1 0-14.906h152.961a7.453 7.453 0 0 1 7.454 7.453zm-76.495 29.844a7.453 7.453 0 0 1-7.454 7.453H67.22a7.453 7.453 0 1 1 0-14.906h76.466a7.453 7.453 0 0 1 7.454 7.453z" fill="#000000" opacity="1" data-original="#000000" class=""></path></g></svg>