<?xml version="1.0" encoding="UTF-8"?>
<svg width="1200pt" height="1200pt" version="1.1" viewBox="0 0 1200 1200" xmlns="http://www.w3.org/2000/svg">
 <path d="m733.44 512.64-124.56-71.879c-5.5195-3.1211-12.238-3.1211-17.762 0l-124.56 71.879c-5.5195 3.1211-8.8789 9-8.8789 15.359v143.88c0 6.3594 3.3594 12.238 8.8789 15.359l124.56 71.879c2.7617 1.5586 5.7617 2.3984 8.8789 2.3984 3.1211 0 6.1211-0.83984 8.8789-2.3984l124.56-71.879c5.5195-3.1211 8.8789-9 8.8789-15.359v-143.88c0-6.3594-3.3594-12.238-8.8789-15.359zm-133.44-36.121 89.039 51.48-89.039 51.48-89.039-51.48zm-106.8 82.199 89.039 51.48v102.84l-89.039-51.48zm124.56 154.32v-102.84l89.039-51.48v102.84zm507.36-171.72c-33.359-33.359-87.719-33.359-121.08 0-12.121 12.121-19.922 27.121-23.16 42.84h-89.281c-0.48047-9.9609-1.5586-19.801-3.1211-29.641-1.1992-7.8008-7.3203-13.801-15.121-14.879l-32.398-4.4414c-5.6406-21-13.922-41.16-24.84-60l19.801-26.039c4.8008-6.2383 4.8008-14.879 0.23828-21.238-5.1602-6.9609-10.559-13.68-16.199-20.16l72.359-72.359c8.7617 4.8008 18.84 7.4414 29.52 7.4414 34.199 0 62.039-27.84 62.039-62.039 0-34.199-27.84-62.039-62.039-62.039-34.199 0-62.039 27.84-62.039 62.039 0 10.68 2.7617 20.762 7.4414 29.52l-72.121 72.121c-7.4414-6.6016-15.121-12.961-23.16-18.84-6.3594-4.6797-15-4.5586-21.238 0.23828l-26.039 19.801c-18.84-10.922-38.879-19.199-60-24.84l-4.4414-32.398c-1.0781-7.8008-7.0781-13.922-14.879-15.121-8.5195-1.3203-17.16-2.2812-25.801-2.8789v-89.398c16.078-3.3594 30.84-11.281 42.84-23.281 16.199-16.199 25.078-37.68 25.078-60.602s-8.8789-44.398-25.078-60.602c-16.199-16.199-37.68-25.078-60.602-25.078s-44.398 8.8789-60.602 25.078c-16.199 16.199-25.078 37.68-25.078 60.602s8.8789 44.398 25.078 60.602c11.879 11.879 26.762 19.801 42.84 23.281v89.16c-9.9609 0.48047-19.801 1.5586-29.641 3.1211-7.8008 1.1992-13.801 7.3203-14.879 15.121l-4.4414 32.398c-21 5.6406-41.16 13.922-60 24.84l-26.039-19.801c-6.2383-4.8008-14.879-4.8008-21.238-0.23828-6.9609 5.1602-13.68 10.559-20.16 16.199l-72.359-72.359c4.8008-8.7617 7.4414-18.84 7.4414-29.52 0-34.199-27.84-62.039-62.039-62.039-34.199 0-62.039 27.84-62.039 62.039 0 34.199 27.84 62.039 62.039 62.039 10.68 0 20.762-2.7617 29.52-7.4414l72.121 72.121c-6.6016 7.4414-12.961 15.121-18.84 23.16-4.6797 6.3594-4.5586 15 0.23828 21.238l19.801 26.039c-10.922 18.84-19.199 38.879-24.84 60l-32.398 4.4414c-7.8008 1.0781-13.922 7.0781-15.121 14.879-1.3203 8.5195-2.2812 17.16-2.8789 25.801h-89.398c-3.3594-16.078-11.281-30.84-23.281-42.84-16.199-16.199-37.68-25.078-60.602-25.078s-44.398 8.8789-60.602 25.078c-16.199 16.199-25.078 37.68-25.078 60.602s8.8789 44.398 25.078 60.602c16.199 16.199 37.68 25.078 60.602 25.078s44.398-8.8789 60.602-25.078c11.879-11.879 19.801-26.762 23.281-42.84h89.16c0.48047 9.9609 1.5586 19.801 3.1211 29.641 1.1992 7.8008 7.3203 13.801 15.121 14.879l32.398 4.4414c5.6406 21 13.922 41.16 24.84 60l-19.801 26.039c-4.8008 6.2383-4.8008 14.879-0.23828 21.238 5.1602 6.9609 10.559 13.68 16.199 20.16l-72.359 72.359c-8.7617-4.8008-18.84-7.4414-29.52-7.4414-34.199 0-62.039 27.84-62.039 62.039 0 34.199 27.84 62.039 62.039 62.039 34.199 0 62.039-27.84 62.039-62.039 0-10.68-2.7617-20.762-7.4414-29.52l72.121-72.121c7.4414 6.6016 15.121 12.961 23.16 18.84 6.3594 4.6797 15 4.5586 21.238-0.23828l26.039-19.801c18.84 10.922 38.879 19.199 60 24.84l4.4414 32.398c1.0781 7.8008 7.0781 13.922 14.879 15.121 8.5195 1.3203 17.16 2.2812 25.801 2.8789v89.398c-16.078 3.3594-30.84 11.281-42.84 23.281-16.199 16.199-25.078 37.68-25.078 60.602s8.8789 44.398 25.078 60.602c16.199 16.199 37.68 25.078 60.602 25.078s44.398-8.8789 60.602-25.078c16.199-16.199 25.078-37.68 25.078-60.602s-8.8789-44.398-25.078-60.602c-11.879-11.879-26.762-19.801-42.84-23.281v-89.16c9.9609-0.48047 19.801-1.5586 29.641-3.1211 7.8008-1.1992 13.801-7.3203 14.879-15.121l4.4414-32.398c21-5.6406 41.16-13.922 60-24.84l26.039 19.801c6.2383 4.8008 14.879 4.8008 21.238 0.23828 6.9609-5.1602 13.68-10.559 20.16-16.199l72.359 72.359c-4.8008 8.7617-7.4414 18.84-7.4414 29.52 0 34.199 27.84 62.039 62.039 62.039 34.199 0 62.039-27.84 62.039-62.039 0-34.199-27.84-62.039-62.039-62.039-10.68 0-20.762 2.7617-29.52 7.4414l-72.121-72.121c6.6016-7.4414 12.961-15.121 18.84-23.16 4.6797-6.3594 4.5586-15-0.23828-21.238l-19.801-26.039c10.922-18.84 19.199-38.879 24.84-60l32.398-4.4414c7.8008-1.0781 13.922-7.0781 15.121-14.879 1.3203-8.5195 2.2812-17.16 2.8789-25.801h89.52c3.3594 15.719 11.039 30.602 23.16 42.84 16.199 16.199 37.68 25.078 60.602 25.078s44.398-8.8789 60.602-25.078c33.359-33.359 33.359-87.719 0-121.08zm-954.24 92.16c-19.559 19.559-51.359 19.559-70.922 0-19.559-19.559-19.559-51.359 0-70.922 9.7188-9.7188 22.559-14.641 35.398-14.641 12.84 0 25.68 4.9219 35.398 14.641 19.559 19.559 19.559 51.359 0 70.922zm750.96-379.08c14.641 0 26.52 11.879 26.52 26.52s-11.879 26.52-26.52 26.52-26.52-11.879-26.52-26.52 11.879-26.52 26.52-26.52zm-369.96-119.04c0-13.441 5.1602-25.922 14.641-35.398 9.7188-9.7188 22.559-14.641 35.398-14.641 12.84 0 25.68 4.9219 35.398 14.641 9.4805 9.4805 14.641 22.078 14.641 35.398 0 13.32-5.1602 25.922-14.641 35.398-19.559 19.559-51.359 19.559-70.922 0-9.4805-9.4805-14.641-22.078-14.641-35.398zm-297.48 142.8c0-14.641 11.879-26.52 26.52-26.52s26.52 11.879 26.52 26.52c0 14.641-11.879 26.52-26.52 26.52s-26.52-11.879-26.52-26.52zm23.762 667.44c-14.641 0-26.52-11.879-26.52-26.52 0-14.641 11.879-26.52 26.52-26.52s26.52 11.879 26.52 26.52c0 14.641-11.879 26.52-26.52 26.52zm355.32 154.44c-19.559 19.559-51.359 19.559-70.922 0-19.559-19.559-19.559-51.359 0-70.922 9.7188-9.7188 22.559-14.641 35.398-14.641 12.84 0 25.68 4.9219 35.398 14.641 19.559 19.559 19.559 51.359 0 70.922zm312.12-178.2c0 14.641-11.879 26.52-26.52 26.52s-26.52-11.879-26.52-26.52 11.879-26.52 26.52-26.52 26.52 11.879 26.52 26.52zm-90.359-294.84-30.961 4.1992c-7.4414 0.96094-13.441 6.6016-15 13.922-5.3984 25.441-15.359 49.32-29.398 71.039-4.0781 6.2383-3.7188 14.398 0.71875 20.398l18.961 24.84c-11.398 14.039-24.121 26.762-38.16 38.16l-24.84-18.961c-6-4.5586-14.16-4.8008-20.398-0.71875-21.719 14.039-45.719 24-71.039 29.398-7.3203 1.5586-12.84 7.5586-13.922 15l-4.1992 30.961c-17.879 1.9219-36 1.9219-53.879 0l-4.1992-30.961c-0.96094-7.4414-6.6016-13.441-13.922-15-25.441-5.3984-49.32-15.359-71.16-29.398-6.2383-4.0781-14.398-3.7188-20.398 0.71875l-24.84 18.961c-14.039-11.398-26.762-24.121-38.16-38.16l18.961-24.84c4.5586-6 4.8008-14.16 0.71875-20.398-14.039-21.719-24-45.719-29.398-71.039-1.5586-7.3203-7.5586-12.84-15-13.922l-30.961-4.1992c-1.9219-17.879-1.9219-36 0-53.879l30.961-4.1992c7.4414-0.96094 13.441-6.6016 15-13.922 5.3984-25.441 15.359-49.32 29.398-71.039 4.0781-6.2383 3.7188-14.398-0.71875-20.398l-18.961-24.84c11.398-14.039 24.121-26.762 38.16-38.16l24.84 18.961c6 4.5586 14.16 4.8008 20.398 0.71875 21.719-14.039 45.719-24 71.039-29.398 7.3203-1.5586 12.84-7.5586 13.922-15l4.1992-30.961c17.879-1.9219 36-1.9219 53.879 0l4.1992 30.961c0.96094 7.4414 6.6016 13.441 13.922 15 25.441 5.3984 49.32 15.359 71.039 29.398 6.2383 4.0781 14.398 3.7188 20.398-0.71875l24.84-18.961c14.039 11.398 26.762 24.121 38.16 38.16l-18.961 24.84c-4.5586 6-4.8008 14.16-0.71875 20.398 14.039 21.719 24 45.719 29.398 71.039 1.5586 7.3203 7.5586 12.84 15 13.922l30.961 4.1992c1.9219 17.879 1.9219 36 0 53.879zm244.8 10.441c-19.559 19.559-51.359 19.559-70.922 0-19.559-19.559-19.559-51.359 0-70.922 9.7188-9.7188 22.559-14.641 35.398-14.641 12.84 0 25.68 4.9219 35.398 14.641 19.559 19.559 19.559 51.359 0 70.922z" fill="#600a68"/>
</svg>
