<?xml version="1.0" encoding="UTF-8"?>
<svg width="1200pt" height="1200pt" version="1.1" viewBox="0 0 1200 1200" xmlns="http://www.w3.org/2000/svg">
 <path d="m534.38 375c-37.809 11.051-72.223 31.445-100.08 59.297-27.852 27.855-48.246 62.27-59.297 100.08h100.5c13.172-25.164 33.715-45.707 58.879-58.879z" fill="#600a68"/>
 <path d="m665.62 724.5v100.5c37.809-11.051 72.227-31.441 100.08-59.297 27.855-27.852 48.246-62.27 59.297-100.08h-100.5c-13.172 25.164-33.715 45.707-58.879 58.879z" fill="#600a68"/>
 <path d="m375 665.62c11.051 37.809 31.445 72.223 59.297 100.08 27.855 27.852 62.27 48.246 100.08 59.297v-100.5c-25.164-13.172-45.707-33.715-58.879-58.879z" fill="#600a68"/>
 <path d="m665.62 475.5c25.164 13.172 45.707 33.715 58.879 58.879h100.5c-11.051-37.809-31.441-72.227-59.297-100.08-27.852-27.855-62.27-48.246-100.08-59.297z" fill="#600a68"/>
 <path d="m665.62 883.12v133.5c88.047-14.012 169.41-55.504 232.45-118.55 63.039-63.043 104.53-144.41 118.54-232.45h-133.5c-12.32 52.949-39.227 101.39-77.668 139.83-38.441 38.441-86.883 65.348-139.83 77.668z" fill="#600a68"/>
 <path d="m883.12 534.38h133.5c-14.012-88.047-55.504-169.41-118.54-232.45-63.043-63.043-144.41-104.54-232.45-118.55v133.5c52.949 12.324 101.39 39.23 139.83 77.672s65.352 86.879 77.672 139.83z" fill="#600a68"/>
 <path d="m183.38 665.62c14.012 88.047 55.504 169.41 118.54 232.45 63.043 63.043 144.41 104.54 232.45 118.55v-133.5c-52.949-12.32-101.39-39.23-139.83-77.672s-65.348-86.879-77.672-139.83z" fill="#600a68"/>
 <path d="m183.38 534.38h133.5c12.324-52.949 39.23-101.39 77.672-139.83s86.879-65.348 139.83-77.672v-133.5c-88.047 14.012-169.41 55.504-232.45 118.55-63.039 63.043-104.53 144.41-118.54 232.45z" fill="#600a68"/>
 <path d="m628.12 450v-337.5c0-10.047-5.3594-19.332-14.062-24.355-8.7031-5.0273-19.422-5.0273-28.125 0-8.7031 5.0234-14.062 14.309-14.062 24.355v337.5c0 10.047 5.3594 19.332 14.062 24.355 8.7031 5.0273 19.422 5.0273 28.125 0 8.7031-5.0234 14.062-14.309 14.062-24.355z" fill="#600a68"/>
 <path d="m1087.5 571.88h-337.5c-10.047 0-19.332 5.3594-24.355 14.062-5.0273 8.7031-5.0273 19.422 0 28.125 5.0234 8.7031 14.309 14.062 24.355 14.062h337.5c10.047 0 19.332-5.3594 24.355-14.062 5.0273-8.7031 5.0273-19.422 0-28.125-5.0234-8.7031-14.309-14.062-24.355-14.062z" fill="#600a68"/>
 <path d="m628.12 1087.5v-337.5c0-10.047-5.3594-19.332-14.062-24.355-8.7031-5.0273-19.422-5.0273-28.125 0-8.7031 5.0234-14.062 14.309-14.062 24.355v337.5c0 10.047 5.3594 19.332 14.062 24.355 8.7031 5.0273 19.422 5.0273 28.125 0 8.7031-5.0234 14.062-14.309 14.062-24.355z" fill="#600a68"/>
 <path d="m84.375 600c0.003906 7.457 2.9648 14.609 8.2383 19.887 5.2773 5.2734 12.43 8.2344 19.887 8.2383h337.5c10.047 0 19.332-5.3594 24.355-14.062 5.0273-8.7031 5.0273-19.422 0-28.125-5.0234-8.7031-14.309-14.062-24.355-14.062h-337.5c-7.457 0.003906-14.609 2.9648-19.887 8.2383-5.2734 5.2773-8.2344 12.43-8.2383 19.887z" fill="#600a68"/>
 <path d="m501.56 600c0 26.105 10.371 51.145 28.832 69.605 18.461 18.461 43.5 28.832 69.605 28.832s51.145-10.371 69.605-28.832c18.461-18.461 28.832-43.5 28.832-69.605s-10.371-51.145-28.832-69.605c-18.461-18.461-43.5-28.832-69.605-28.832s-51.145 10.371-69.605 28.832c-18.461 18.461-28.832 43.5-28.832 69.605zm98.438-37.5c9.9453 0 19.484 3.9492 26.516 10.984 7.0352 7.0312 10.984 16.57 10.984 26.516s-3.9492 19.484-10.984 26.516c-7.0312 7.0352-16.57 10.984-26.516 10.984s-19.484-3.9492-26.516-10.984c-7.0352-7.0312-10.984-16.57-10.984-26.516s3.9492-19.484 10.984-26.516c7.0312-7.0352 16.57-10.984 26.516-10.984z" fill="#600a68"/>
</svg>
