<svg xmlns="http://www.w3.org/2000/svg" version="1.1" xmlns:xlink="http://www.w3.org/1999/xlink" width="512" height="512" x="0" y="0" viewBox="0 0 512 512" style="enable-background:new 0 0 512 512" xml:space="preserve" class=""><g><g fill-rule="evenodd" clip-rule="evenodd"><path fill="#ffbc50" d="M184.824 114.036h272.283c25.79 0 46.891 21.101 46.891 46.891v219.031c0 25.79-21.101 46.891-46.891 46.891h-35.471v48.393c0 2.089-1.208 3.871-3.148 4.644-1.94.774-4.043.311-5.48-1.205l-49.122-51.832h-132.17c-25.789 0-46.891-21.101-46.891-46.891V114.036z" opacity="1" data-original="#a2e19f" class=""></path><path fill="#ffbc50" d="M483.998 379.957c0 25.79-21.101 46.891-46.891 46.891h20.001c25.79 0 46.891-21.101 46.891-46.891v-219.03c0-25.79-21.101-46.891-46.891-46.891h-20.001c25.79 0 46.891 21.101 46.891 46.891zm-82.362 46.891v39.832l11.372 11.999c1.437 1.516 3.54 1.979 5.48 1.205 1.941-.773 3.148-2.555 3.148-4.644v-48.393h-20z" opacity="1" data-original="#97cf92" class=""></path><path fill="#4dadb3" d="M377.081 31.763H54.889c-25.79 0-46.891 21.101-46.891 46.891v219.03c0 25.79 21.101 46.891 46.891 46.891h35.472v48.393c0 2.089 1.208 3.871 3.148 4.644 1.941.773 4.043.311 5.48-1.205l49.122-51.832H377.08c25.79 0 46.891-21.1 46.891-46.891V78.653c0-25.79-21.1-46.89-46.89-46.89z" opacity="1" data-original="#c7ebfd" class=""></path><path fill="#4dadb3" d="m98.989 396.407 49.122-51.832H128.11l-37.75 39.833v8.56c0 2.089 1.208 3.871 3.148 4.644 1.942.773 4.044.311 5.481-1.205zm304.982-282.371v183.648c0 25.79-21.101 46.891-46.891 46.891h20.001c25.79 0 46.891-21.1 46.891-46.891V78.653c0-25.79-21.101-46.891-46.891-46.891H357.08c25.79 0 46.891 21.101 46.891 46.891z" opacity="1" data-original="#b6dded" class=""></path></g><path fill-rule="evenodd" d="M361.829 250.36c0 4.411-3.58 8-8 8H291.2c-4.42 0-8-3.59-8-8 0-4.42 3.58-8 8-8h62.629c4.42-.001 8 3.58 8 8zm-99.168 0c0 4.411-3.58 8-8 8h-59.789c-4.42 0-8-3.59-8-8 0-4.42 3.58-8 8-8h59.789c4.42-.001 8 3.58 8 8zm-100.601 0c0 4.411-3.58 8-8 8H78.142c-4.42 0-8-3.59-8-8 0-4.42 3.58-8 8-8h75.917a7.998 7.998 0 0 1 8.001 8zm0-65.959c0 4.42-3.58 8-8 8H78.142c-4.42 0-8-3.58-8-8 0-4.425 3.58-8 8-8h75.917a7.995 7.995 0 0 1 8.001 8zm199.769 0c0 4.42-3.58 8-8 8H194.872c-4.42 0-8-3.58-8-8 0-4.425 3.58-8 8-8h158.957c4.42-.001 8 3.575 8 8zm0-65.964c0 4.42-3.58 8-8 8H78.142a7.998 7.998 0 1 1 0-15.996h275.687c4.42 0 8 3.59 8 7.996zm134.178 257.752v-219.03c0-21.439-17.453-38.893-38.916-38.893h-25.124v175.651c0 30.26-24.619 54.888-54.888 54.888h-184.25v27.383c0 21.439 17.439 38.888 38.893 38.888h132.169c2.189 0 4.288.901 5.797 2.5l43.954 46.369v-40.869c0-4.42 3.58-8 8-8h35.449c21.463 0 38.916-17.448 38.916-38.887zM148.111 332.81H377.08c21.449 0 38.892-17.453 38.892-38.892V74.888C415.972 53.44 398.528 36 377.08 36H54.892c-21.445 0-38.893 17.44-38.893 38.888v219.029c0 21.439 17.449 38.892 38.893 38.892H90.36c4.42 0 8 3.58 8 8v40.86l43.949-46.374a8.027 8.027 0 0 1 5.802-2.485zm308.98-230.539h-25.124V74.888c0-30.27-24.619-54.888-54.888-54.888H54.892C24.622 20-.002 44.619-.002 74.888v219.029c0 30.26 24.624 54.888 54.893 54.888h27.468v52.936c0 3.278 2 6.217 5.043 7.439a8.065 8.065 0 0 0 2.958.557c2.16 0 4.269-.868 5.811-2.486l55.379-58.445h25.279v27.383c0 30.27 24.623 54.893 54.893 54.893h128.73l55.379 58.436a7.978 7.978 0 0 0 5.811 2.5 8.14 8.14 0 0 0 2.958-.566 8.014 8.014 0 0 0 5.043-7.43v-52.94h27.449c30.284 0 54.907-24.623 54.907-54.893v-219.03c-.001-30.269-24.624-54.888-54.908-54.888z" clip-rule="evenodd" fill="#000000" opacity="1" data-original="#000000" class=""></path></g></svg>