<?xml version="1.0" encoding="UTF-8"?>
<svg width="1200pt" height="1200pt" version="1.1" viewBox="0 0 1200 1200" xmlns="http://www.w3.org/2000/svg">
 <path d="m396.56 894.89 0.09375 0.1875c5.9531 23.156 18.047 43.828 34.406 60.234 23.812 23.812 56.766 38.578 93.141 38.578s69.328-14.766 93.141-38.578c16.359-16.359 28.453-37.078 34.406-60.234l0.09375-0.1875c2.6719-10.453 4.125-21.469 4.125-32.719 0-13.641-2.0625-26.766-5.9531-39.188l-0.09375-0.23438-0.1875-0.5625c-6.4688-20.297-17.719-38.484-32.391-53.203-23.812-23.812-56.766-38.578-93.141-38.578s-69.328 14.766-93.141 38.578c-14.531 14.484-25.688 32.391-32.203 52.406l-0.09375 0.23438-0.375 1.125-0.09375 0.1875c-3.8438 12.375-5.9531 25.547-5.9531 39.188 0 11.297 1.4062 22.266 4.125 32.719zm530.02-774.28c0-13.266 10.734-24 24-24s24 10.734 24 24v9.5625c11.156 3.75 21.188 10.031 29.297 18.188 13.641 13.641 22.078 32.484 22.078 53.297 0 13.266-10.734 24-24 24s-24-10.734-24-24c0-7.5469-3.0469-14.438-8.0156-19.359-4.9219-4.9219-11.812-8.0156-19.359-8.0156s-14.438 3.0469-19.359 8.0156c-4.9219 4.9219-8.0156 11.812-8.0156 19.359 0 20.672 18.094 27.844 36.234 34.969 33.281 13.125 66.562 26.297 66.562 79.594 0 20.812-8.4375 39.656-22.078 53.297-8.1562 8.1562-18.141 14.391-29.297 18.188v9.5625c0 13.266-10.734 24-24 24s-24-10.734-24-24v-9.5625c-11.156-3.75-21.188-10.031-29.297-18.188-13.641-13.641-22.078-32.531-22.078-53.297 0-13.266 10.734-24 24-24s24 10.734 24 24c0 7.5469 3.0469 14.438 8.0156 19.359 4.9219 4.9219 11.812 8.0156 19.359 8.0156s14.438-3.0469 19.359-8.0156c4.9219-4.9219 8.0156-11.812 8.0156-19.359 0-20.672-18.094-27.844-36.234-34.969-33.281-13.125-66.562-26.297-66.562-79.594 0-20.812 8.4375-39.656 22.078-53.297 8.1562-8.1562 18.141-14.391 29.297-18.188zm24-35.859c-48.047 0-91.641 19.5-123.14 51l-1.2656 1.1719c-18.797 19.125-33.188 42.656-41.531 68.859l-0.14062 0.5625-0.375 1.125-0.09375 0.14062c-4.9688 16.219-7.6406 33.375-7.6406 51.234 0 48.094 19.5 91.641 51 123.14l1.1719 1.2656c23.391 22.969 53.297 39.375 86.812 46.219l1.3125 0.23438c10.922 2.1562 22.266 3.2812 33.844 3.2812 13.734 0 27.141-1.5938 39.984-4.5938l2.1094-0.51562c31.266-7.7344 59.109-23.859 81.094-45.844 31.5-31.594 51-75.188 51-123.28 0-48.188-19.453-91.734-50.906-123.14-31.547-31.547-75.047-51-123.24-51zm-157.08 17.062c40.219-40.219 95.719-65.062 157.08-65.062 61.219 0 116.67 24.844 156.94 65.016l0.09375 0.09375c40.266 40.266 65.109 95.812 65.109 156.98 0 61.359-24.891 116.91-65.062 157.08-24.094 24-53.578 42.562-86.484 53.625v275.86c0 49.359-20.203 94.266-52.688 126.71-32.484 32.484-77.391 52.688-126.71 52.688h-149.06c-8.25 22.125-20.719 42.141-36.375 59.156l19.406 109.92c1.9688 11.203 0.70312 22.406-3.4219 32.531-4.0781 10.125-11.109 19.031-20.484 25.688s-20.016 10.312-30.938 10.922c-10.875 0.60938-21.844-1.9219-31.875-7.5469l-64.734-36.188-64.734 36.188c-10.031 5.625-21.047 8.1094-31.875 7.5469l-0.65625-0.046875c-10.641-0.70312-21.094-4.4062-30.281-10.875-9.375-6.7031-16.406-15.609-20.531-25.688l-0.60938-1.7344c-3.6094-9.7031-4.6406-20.25-2.7656-30.797l19.406-109.92c-15.703-16.969-28.125-37.031-36.375-59.156h-149.06c-49.266 0-94.125-20.203-126.66-52.688-32.578-32.625-52.781-77.438-52.781-126.71v-390.19c0-49.359 20.203-94.266 52.688-126.71 32.531-32.531 77.391-52.688 126.71-52.688h537.84c11.016-27.234 27.328-51.891 47.578-72.562zm179.68 378.1c-7.4062 0.75-14.953 1.125-22.594 1.125-5.1562 0-10.219-0.1875-15.281-0.5625v264.94c0 25.781-10.547 49.172-27.469 66.141l-1.5938 1.4531c-16.828 16.078-39.609 26.016-64.547 26.016h-139.26c0.98437 7.5469 1.4531 15.281 1.4531 23.062 0 4.9688-0.23437 9.8438-0.60937 14.719h138.37c36.094 0 69-14.812 92.812-38.625s38.625-56.719 38.625-92.812v-265.55zm-85.875-8.0156c-35.203-10.453-66.797-29.438-92.344-54.562l-1.4531-1.3125c-28.781-28.781-49.688-65.391-59.25-106.36h-527.58c-12.047 0-23.062 4.7344-31.125 12.328l-1.0312 1.0781c-8.2969 8.2969-13.406 19.641-13.406 32.203v390.24c0 12.516 5.1562 23.953 13.406 32.203 8.2031 8.2969 19.594 13.406 32.203 13.406h152.48c9.0938-21.047 22.031-39.938 37.969-55.922 32.531-32.625 77.484-52.734 127.08-52.734 49.598 0 94.594 20.109 127.08 52.641 15.984 15.984 28.922 34.969 38.016 56.016h152.44c12.047 0 23.062-4.7344 31.125-12.328l1.0312-1.0781c8.2969-8.2969 13.406-19.641 13.406-32.203v-273.56zm-158.86-210.24v-2.7188c0-11.906 0.98438-23.672 2.7656-35.109h-524.53c-36.094 0-69 14.812-92.812 38.625s-38.625 56.672-38.625 92.812v390.19c0 36.141 14.812 69.047 38.578 92.859 23.812 23.812 56.719 38.578 92.859 38.578h138.37c-0.375-4.875-0.60938-9.7969-0.60938-14.719 0-7.8281 0.51562-15.516 1.4531-23.062h-139.26c-25.688 0-49.078-10.547-66.047-27.562-16.969-16.875-27.562-40.266-27.562-66.047v-390.24c0-25.734 10.547-49.172 27.469-66.094l1.5938-1.4531c16.828-16.078 39.656-26.016 64.547-26.016h521.76zm-204.24 525.05c20.719 0 39.562 8.4375 53.203 22.078 13.734 13.734 22.172 32.578 22.172 53.297s-8.4375 39.562-22.078 53.203c-13.734 13.734-32.578 22.172-53.297 22.172s-39.562-8.4375-53.203-22.078c-13.734-13.734-22.172-32.625-22.172-53.297 0-20.719 8.4375-39.562 22.078-53.203 13.734-13.734 32.625-22.172 53.297-22.172zm19.453 55.969c-4.9219-4.9219-11.812-7.9688-19.453-7.9688-7.5938 0-14.531 3.0469-19.453 7.9688s-7.9688 11.812-7.9688 19.453c0 7.5938 3.0469 14.531 7.9688 19.453s11.812 7.9688 19.453 7.9688c7.5938 0 14.531-3.0469 19.453-7.9688s7.9688-11.812 7.9688-19.453c0-7.5938-3.0469-14.531-7.9688-19.453zm-108.8 175.4-14.812 84.094c-0.375 2.0156-0.23438 3.9375 0.23438 5.4844l0.32812 0.79688c0.70312 1.7812 2.0625 3.375 3.8438 4.6875 1.7812 1.2656 3.6562 2.0156 5.4844 2.1094h0.32812c1.9219 0.09375 3.9844-0.375 6-1.5469l76.312-42.703c6.9844-3.8438 15.75-4.125 23.25 0l76.312 42.703c2.0156 1.125 4.125 1.6406 6 1.5469 1.9219-0.09375 3.9375-0.84375 5.8125-2.1094 1.7812-1.3125 3.1406-2.9062 3.8438-4.6875 0.79688-1.7812 0.98438-3.9375 0.5625-6.2812l-14.812-84.094c-26.297 15.141-56.859 23.766-89.344 23.766-32.531 0-63.047-8.625-89.344-23.766zm-81.469-597.66c-13.266 0-24-10.734-24-24 0-13.266 10.734-24 24-24h341.63c13.266 0 24 10.734 24 24 0 13.266-10.734 24-24 24zm-43.875 84.656c-13.266 0-24-10.734-24-24 0-13.266 10.734-24 24-24h429.37c13.266 0 24 10.734 24 24 0 13.266-10.734 24-24 24zm-43.875 84.656c-13.266 0-24-10.734-24-24 0-13.266 10.734-24 24-24h517.13c13.266 0 24 10.734 24 24 0 13.266-10.734 24-24 24z" fill="#600a68"/>
</svg>
