<svg xmlns="http://www.w3.org/2000/svg" version="1.1" xmlns:xlink="http://www.w3.org/1999/xlink" width="512" height="512" x="0" y="0" viewBox="0 0 512 512" style="enable-background:new 0 0 512 512" xml:space="preserve" class=""><g><g fill-rule="evenodd" clip-rule="evenodd"><circle cx="256" cy="256.001" r="240" fill="#ebebeb" transform="rotate(-45 255.972 256.066)" opacity="1" data-original="#8d9ca8" class=""></circle><circle cx="256" cy="256.001" r="223.453" fill="#ffffff" transform="rotate(-45 255.972 256.066)" opacity="1" data-original="#9facba" class=""></circle><path fill="#ebebeb" d="M496 256c0-132.549-107.452-240.001-240-240.001s-240 107.452-240 240V256z" opacity="1" data-original="#eceff1" class=""></path><circle cx="256" cy="256" r="22.043" fill="#8c9bb2" transform="rotate(-45 255.972 256.066)" opacity="1" data-original="#837683" class=""></circle><path fill="#4dadb3" d="M256 16.001c132.548 0 239.999 107.451 239.999 239.999H395.533v-.001c0-77.061-62.473-139.534-139.534-139.534s-139.534 62.473-139.534 139.534V256H16C16 123.452 123.452 16.001 256 16.001z" opacity="1" data-original="#00e499" class=""></path><path fill="#4dadb3" d="M479.453 256h-83.92v-.001c0-77.061-62.473-139.534-139.534-139.534s-139.534 62.473-139.534 139.534V256H32.547C32.547 132.591 132.59 32.547 256 32.547S479.453 132.591 479.453 256z" opacity="1" data-original="#6cf5c2" class=""></path><path fill="#4dadb3" d="M256 16.001c-88.825 0-166.38 48.254-207.88 119.979l87.02 50.241c24.128-41.7 69.218-69.756 120.859-69.756 77.061 0 139.534 62.473 139.534 139.535h100.466c0-132.548-107.452-239.999-239.999-239.999z" opacity="1" data-original="#00cf8a" class=""></path><path fill="#4dadb3" d="m62.457 144.258 72.683 41.963c24.128-41.7 69.218-69.756 120.859-69.756 77.061 0 139.534 62.473 139.534 139.535h83.92c0-123.409-100.044-223.452-223.453-223.452-82.701-.001-154.904 44.931-193.543 111.71z" opacity="1" data-original="#00e499" class=""></path><path fill="#ffbc50" d="m135.98 48.12 50.241 87.02c20.526-11.877 44.359-18.675 69.779-18.675 77.061 0 139.534 62.473 139.534 139.535H496c0-132.548-107.452-239.999-239.999-239.999-43.724 0-84.716 11.692-120.021 32.119z" opacity="1" data-original="#ffd064" class=""></path><path fill="#ffbc50" d="m144.258 62.458 41.963 72.682c20.526-11.877 44.359-18.675 69.779-18.675 77.061 0 139.534 62.473 139.534 139.535h83.92c0-123.409-100.044-223.452-223.453-223.452-40.71-.001-78.872 10.89-111.743 29.91z" opacity="1" data-original="#ffe177" class=""></path><path fill="#ffbc50" d="M255.999 16.001v100.464c77.061 0 139.534 62.473 139.534 139.535h100.466c0-132.548-107.452-239.999-240-239.999z" opacity="1" data-original="#ffc338" class=""></path><path fill="#ffbc50" d="M255.999 32.547v83.918c77.061 0 139.534 62.473 139.534 139.535h83.92c0-123.409-100.044-223.453-223.454-223.453z" opacity="1" data-original="#ffd064" class=""></path><path fill="#b8357b" d="M325.777 135.139c41.7 24.128 69.756 69.219 69.756 120.861h100.466c0-88.826-48.255-166.381-119.981-207.88z" opacity="1" data-original="#fd4755" class=""></path><path fill="#b8357b" d="M325.777 135.139c41.7 24.128 69.756 69.219 69.756 120.861h83.92c0-82.702-44.932-154.904-111.712-193.543z" opacity="1" data-original="#fe646f" class=""></path><path fill="#b8357b" d="M376.858 186.221c11.877 20.526 18.675 44.359 18.675 69.779h100.466c0-43.723-11.692-84.715-32.12-120.021z" opacity="1" data-original="#eb3241" class=""></path><path fill="#b8357b" d="M376.858 186.221c11.877 20.526 18.675 44.359 18.675 69.779h83.92c0-40.709-10.892-78.871-29.911-111.743z" opacity="1" data-original="#fd4755" class=""></path><path fill="#8c9bb2" d="M256 233.957c12.174 0 22.043 9.869 22.043 22.043s-9.869 22.043-22.043 22.043c-1.35 0-2.671-.122-3.954-.354 10.287-1.863 18.089-10.865 18.089-21.689s-7.802-19.826-18.089-21.689a22.195 22.195 0 0 1 3.954-.354z" opacity="1" data-original="#685e68" class=""></path><path fill="#b8357b" d="M144.785 426.276h23.638a6.036 6.036 0 0 1 6.024 6.024v57.674a6.036 6.036 0 0 1-6.024 6.024h-23.638a6.036 6.036 0 0 1-6.024-6.024V432.3c-.001-3.318 2.706-6.024 6.024-6.024z" opacity="1" data-original="#fe646f" class=""></path><path fill="#b8357b" d="M162.398 426.276h6.025a6.036 6.036 0 0 1 6.024 6.024v57.674a6.036 6.036 0 0 1-6.024 6.024h-6.025c3.318 0 6.025-2.706 6.025-6.024V432.3c0-3.318-2.706-6.024-6.025-6.024z" opacity="1" data-original="#fd4755" class=""></path><path fill="#ffbc50" d="M211.05 382.092h23.639a6.036 6.036 0 0 1 6.024 6.024v101.858a6.036 6.036 0 0 1-6.024 6.024H211.05a6.036 6.036 0 0 1-6.024-6.024V388.116a6.036 6.036 0 0 1 6.024-6.024z" opacity="1" data-original="#ffe177" class=""></path><path fill="#ffbc50" d="M228.664 382.092h6.025a6.036 6.036 0 0 1 6.024 6.024v101.858a6.036 6.036 0 0 1-6.024 6.024h-6.025a6.036 6.036 0 0 0 6.024-6.024V388.116a6.036 6.036 0 0 0-6.024-6.024z" opacity="1" data-original="#ffd064" class=""></path><path fill="#4dadb3" d="M277.315 396.966h23.639c3.318 0 6.024 2.707 6.024 6.025v86.983c.001 3.318-2.706 6.025-6.024 6.025h-23.639c-3.318 0-6.025-2.707-6.024-6.025v-86.983c0-3.319 2.706-6.025 6.024-6.025z" opacity="1" data-original="#6cf5c2" class=""></path><path fill="#4dadb3" d="M294.929 396.966h6.025c3.318 0 6.024 2.707 6.024 6.025v86.983c.001 3.318-2.706 6.025-6.024 6.025h-6.025c3.319 0 6.025-2.707 6.025-6.025v-86.983c0-3.319-2.707-6.025-6.025-6.025z" opacity="1" data-original="#00e499" class=""></path><path fill="#5eac29" d="M343.579 335.279h23.639c3.318 0 6.024 2.706 6.024 6.025v148.67a6.036 6.036 0 0 1-6.024 6.024h-23.639a6.036 6.036 0 0 1-6.024-6.024v-148.67c0-3.319 2.707-6.025 6.024-6.025z" opacity="1" data-original="#8ac9fe" class=""></path><path fill="#5eac29" d="M361.194 335.279h6.024c3.318 0 6.024 2.706 6.024 6.025v148.67a6.036 6.036 0 0 1-6.024 6.024h-6.024a6.036 6.036 0 0 0 6.024-6.024v-148.67c0-3.319-2.706-6.025-6.024-6.025z" opacity="1" data-original="#60b7ff" class=""></path><path d="m286.707 337.72 47.376-47.789c-4.226.15-7.888-3.021-8.217-7.279-.423-4.4 2.864-8.281 7.231-8.67l21.598-1.891c2.395-.209 4.742.66 6.386 2.381 1.69 1.71 2.535 4.09 2.254 6.48l-2.394 21.52c-.47 4.09-3.944 7.11-7.935 7.11-.329 0-.611-.02-.939-.051-4.038-.459-7.043-3.87-7.09-7.859l-50.38 50.81a7.944 7.944 0 0 1-8.123 1.979L224.4 334.33l-62.917 48.991a7.834 7.834 0 0 1-4.883 1.689 8.027 8.027 0 0 1-6.339-3.091c-2.676-3.479-2.066-8.51 1.409-11.219l66.251-51.601a8.07 8.07 0 0 1 7.419-1.3zM166.413 488H146.74v-53.72h19.673zm8.03-69.719h-35.684c-4.414 0-8.029 3.58-8.029 8v69.72c0 4.42 3.615 8 8.029 8h35.684c4.413 0 7.982-3.58 7.982-8v-69.72c-.001-4.42-3.569-8-7.982-8zM365.213 488V343.28H345.54V488zm8.028-160.72h-35.684c-4.414 0-8.029 3.58-8.029 8V496c0 4.42 3.615 8 8.029 8h35.684c4.414 0 7.982-3.58 7.982-8V335.28c.001-4.42-3.568-8-7.982-8zM298.962 488h-19.673v-83.03h19.673zm7.982-99.03H271.26c-4.414 0-7.982 3.58-7.982 8v99.031c0 4.42 3.569 8 7.982 8h35.684c4.461 0 8.029-3.58 8.029-8V396.97c0-4.42-3.568-8-8.029-8zM232.711 488h-19.72v-97.91h19.72zm7.982-113.91h-35.684c-4.413 0-8.029 3.58-8.029 8.001v113.91c0 4.42 3.615 8 8.029 8h35.684c4.414 0 7.982-3.58 7.982-8V382.09c0-4.42-3.568-8-7.982-8zM256 270.039c-7.747 0-14.039-6.3-14.039-14.04s6.291-14.04 14.039-14.04c7.747 0 14.039 6.3 14.039 14.04s-6.292 14.04-14.039 14.04zm-28.97-22.038c3.521-12.69 15.166-22.041 28.97-22.041a29.824 29.824 0 0 1 14.79 3.92l32.82-32.819a8.01 8.01 0 0 1 11.316 0c3.099 3.129 3.099 8.189 0 11.32l-32.82 32.81a28.901 28.901 0 0 1 2.817 6.81h102.358C383.102 179.18 325.819 124.46 256 124.46c-69.866 0-127.149 54.721-131.281 123.541zM124.438 189.28c-9.062 17.801-14.649 37.68-15.776 58.721H24.146c1.221-36.39 10.893-70.68 27.092-100.98zm8.733-130.01 42.258 73.19a148.103 148.103 0 0 0-42.962 42.98l-73.2-42.259c18.687-29.87 44.042-55.201 73.904-73.911zm130.811-35.119c36.389 1.24 70.664 10.9 100.996 27.09L322.72 124.44c-17.795-9.07-37.703-14.629-58.738-15.759zM189.28 124.44a146.247 146.247 0 0 1 58.691-15.759v-84.53c-36.389 1.24-70.664 10.9-100.949 27.09zm263.453 8.741-73.2 42.259a148.828 148.828 0 0 0-43.009-42.98l42.258-73.19c29.909 18.71 55.217 44.041 73.951 73.911zm35.121 114.82c-1.268-36.39-10.94-70.68-27.092-100.98l-73.2 42.259c9.062 17.801 14.602 37.68 15.729 58.721zM431.323 80.639C384.51 33.799 322.204 7.999 256 7.999c-66.251 0-128.557 25.801-175.369 72.641-46.86 46.84-72.637 109.121-72.637 175.359 0 39.06 8.827 76.44 26.2 111.101 16.621 33.051 40.849 62.51 70.195 85.199a8.023 8.023 0 0 0 4.883 1.671c2.394 0 4.789-1.071 6.339-3.111 2.723-3.491 2.066-8.52-1.409-11.219C58.985 396.95 26.447 333.29 24.146 264H227.03c3.521 12.69 15.166 22.041 28.97 22.041s25.401-9.351 28.923-22.041h202.931c-2.301 67.26-33.29 129.71-85.877 172.33a7.93 7.93 0 0 0-1.174 11.25 7.967 7.967 0 0 0 11.222 1.18c58.456-47.36 91.981-117.619 91.981-192.76 0-66.239-25.825-128.52-72.683-175.361z" fill="#000000" opacity="1" data-original="#000000" class=""></path></g></g></svg>