<?xml version="1.0" encoding="UTF-8"?>
<svg width="1200pt" height="1200pt" version="1.1" viewBox="0 0 1200 1200" xmlns="http://www.w3.org/2000/svg">
 <path d="m204 431.04-72-41.762v0.003906c-33.492 74.371-48.754 155.66-44.52 237.12h83.039c-4.2461-66.84 7.2188-133.75 33.48-195.36z" fill="#600a68" fill-rule="evenodd"/>
 <path d="m343.08 253.68-41.762-72h0.003906c-48.062 34.344-89.836 76.727-123.48 125.28l72 41.52c26.082-36.152 57.523-68.121 93.238-94.801z" fill="#600a68" fill-rule="evenodd"/>
 <path d="m553.68 171.12v-83.402c-59.121 5.2773-116.87 20.832-170.64 45.961l41.641 72c40.918-18.223 84.453-29.887 129-34.559z" fill="#600a68" fill-rule="evenodd"/>
 <path d="m776.88 206.52 41.762-72c-53.727-25.363-111.48-41.121-170.64-46.559v83.281-0.003907c44.531 4.9961 88.016 16.898 128.88 35.281z" fill="#600a68" fill-rule="evenodd"/>
 <path d="m1069.1 390.24-72 41.762c25.844 61.383 37.059 127.94 32.762 194.4h83.039c4.2266-81.07-10.781-161.99-43.801-236.16z" fill="#600a68" fill-rule="evenodd"/>
 <path d="m950.64 349.32 72-41.641c-33.523-48.375-74.988-90.734-122.64-125.28l-41.762 72c12.547 9.2891 24.562 19.262 36 29.883l47.16-38.16c5.1914-3.5664 12.16-3.0469 16.77 1.2422 4.6055 4.293 5.6172 11.207 2.4336 16.637l-35.281 52.922c8.7578 10.438 17.398 21.359 25.32 32.398z" fill="#600a68" fill-rule="evenodd"/>
 <path d="m792 401.52-157.68 126.48c33.43 10.293 60.473 35.051 73.68 67.441l182.04-273.48z" fill="#600a68" fill-rule="evenodd"/>
 <path d="m719.28 626.4h175.56c-2.6836-61.562-24.684-120.72-62.879-169.08z" fill="#600a68" fill-rule="evenodd"/>
 <path d="m510.12 638.88v5.043c0.89062 32.441 18.867 61.992 47.266 77.703 28.398 15.707 62.988 15.234 90.945-1.25s45.113-46.52 45.113-78.977c0-32.453-17.156-62.488-45.113-78.973s-62.547-16.961-90.945-1.25c-28.398 15.711-46.375 45.262-47.266 77.703z" fill="#600a68" fill-rule="evenodd"/>
 <path d="m305.16 626.4h179.04c3.2344-28.129 16.602-54.121 37.605-73.113 21-18.992 48.203-29.688 76.516-30.086l162.24-131.04c-58.402-37.836-128.29-53.824-197.34-45.145-69.047 8.6836-132.8 41.477-180.02 92.594-47.219 51.121-74.859 117.27-78.043 186.79z" fill="#600a68" fill-rule="evenodd"/>
 <path d="m373.68 945.12c3.0625-1.8125 6.7227-2.3086 10.156-1.3828 3.4336 0.92578 6.3477 3.1992 8.0859 6.3008l81.957 141.96c5.4219 9.3438 14.32 16.164 24.75 18.973 10.43 2.8125 21.551 1.3828 30.93-3.9727l391.92-226.44c6.3633-3.6172 14.457-1.4219 18.121 4.9219l29.039 50.52 56.281-161.88-168-32.281 28.68 50.16c1.7734 3.0703 2.2539 6.7188 1.332 10.145-0.92578 3.4219-3.1758 6.3359-6.2539 8.0938l-345 199.08c-3.207 1.8438-7.0352 2.2852-10.574 1.2188-3.543-1.0703-6.4922-3.5508-8.1445-6.8594l-81.121-140.52c-5.2969-9.5664-14.215-16.609-24.75-19.543-10.539-2.9297-21.809-1.5117-31.289 3.9414l-187.8 108.48c-9.9727 5.0039-17.465 13.871-20.727 24.539-3.2656 10.672-2.0156 22.211 3.4531 31.938 5.4727 9.7227 14.684 16.785 25.5 19.535 10.812 2.7539 22.281 0.95703 31.734-4.9727z" fill="#600a68" fill-rule="evenodd"/>
</svg>
