<?xml version="1.0" encoding="UTF-8"?>
<svg width="1200pt" height="1200pt" version="1.1" viewBox="0 0 1200 1200" xmlns="http://www.w3.org/2000/svg">
 <path d="m378.47 665.21 156.32 156.32c166.18-66.375 289.6-153.66 370.22-261.84 49.547-66.469 83.062-141.05 100.45-223.69-14.812 0.375-29.484-1.6406-43.453-5.8594-21.75-6.5156-41.906-18.375-58.406-34.875s-28.359-36.656-34.875-58.406c-4.0781-13.547-6.0469-27.703-5.8594-42.047-82.172 17.484-156.32 50.859-222.52 100.22-36.844 27.469-71.297 59.906-103.27 97.266-0.32812 0.46875-0.70312 0.89062-1.125 1.3125-45.516 53.391-86.062 116.91-121.74 190.45-0.23438 0.60938-0.51562 1.1719-0.84375 1.7344-12.234 25.266-23.859 51.75-34.922 79.406zm264.89 147.1c60.844-30.375 114.98-64.125 162.37-101.3 1.7344 17.812 1.8281 35.812 0.23438 54.094-2.3906 27.422-8.5312 55.594-18.656 84.938-62.578 52.172-84.703 66.938-176.02 118.41 10.219-19.031 18.234-37.781 23.906-56.203 10.594-34.406 13.312-67.734 8.1562-99.938zm195.1-128.44c4.6875 27.656 5.8594 55.641 3.375 84.328-2.7656 31.922-10.078 64.594-22.219 98.484-1.0312 2.9062-2.8594 5.5781-5.3906 7.7344-78.609 65.719-95.203 75-235.64 153.61l-13.688 7.6875c-6.0938 3.375-13.875 3.0469-19.781-1.4531-7.8281-6.0469-9.2812-17.344-3.2344-25.172 28.781-37.406 48.469-73.172 58.969-107.34 7.7812-25.172 10.547-49.547 8.3438-73.031-22.781 10.453-46.406 20.484-70.922 30.094-6.7031 3.2812-15.094 2.1562-20.672-3.4219l-13.547-13.547-39.375 39.422c-7.0312 7.0312-18.422 7.0312-25.453 0l-120.42-120.42c-7.0312-7.0312-7.0312-18.422 0-25.453l39.469-39.469-13.547-13.547 0.046875-0.046875c-4.875-4.875-6.7031-12.328-4.0312-19.172 9.7031-24.984 19.922-49.031 30.562-72.188-23.391-2.1562-47.625 0.65625-72.703 8.3438-34.172 10.547-69.938 30.188-107.34 58.969-7.8281 6.0469-19.125 4.5938-25.172-3.2344-4.5469-5.8594-4.875-13.688-1.4531-19.734l7.6875-13.781c78.562-140.34 87.891-156.98 153.56-235.55 2.1094-2.5312 4.8281-4.3594 7.7344-5.3906 33.891-12.141 66.562-19.453 98.484-22.219 28.547-2.4844 56.391-1.3125 83.953 3.3281 31.969-36.422 66.234-68.25 102.8-95.531 116.58-86.906 256.18-127.26 418.74-121.03 9.3281 0.32812 16.969 7.8281 17.297 17.297 6.2344 162.56-34.125 302.16-121.03 418.78-27.281 36.516-59.062 70.781-95.391 102.66zm-452.29 224.95-115.92 115.92c-7.0312 7.0312-7.0312 18.422 0 25.453s18.422 7.0312 25.453 0l115.92-115.92c7.0312-7.0312 7.0312-18.422 0-25.453s-18.422-7.0312-25.453 0zm-120.42-120.42-115.97 115.92c-7.0312 7.0312-7.0312 18.422 0 25.453s18.422 7.0312 25.453 0l115.92-115.92c7.0312-7.0312 7.0312-18.422 0-25.453-6.9844-7.0312-18.375-7.0312-25.406 0zm60.234 60.188-174.52 174.52c-7.0312 7.0312-7.0312 18.422 0 25.453s18.422 7.0312 25.453 0l174.52-174.52c7.0312-7.0312 7.0312-18.422 0-25.453s-18.422-7.0312-25.453 0zm150.61-30.141-24.656 24.656-94.969-94.969 24.656-24.656zm535.4-518.76c-13.453 1.3125-26.953-0.09375-39.75-3.9375-16.031-4.8281-30.938-13.594-43.219-25.875s-21.047-27.188-25.875-43.219c-3.7031-12.328-5.1562-25.359-4.0781-38.344 38.484-5.8594 78.609-8.4375 120.42-7.6875 0.70312 41.25-1.7812 80.953-7.5 119.06zm-523.13 94.781c-37.172 47.391-70.922 101.53-101.25 162.37-32.109-5.1094-65.297-2.3438-99.609 8.2031-18.469 5.6719-37.172 13.641-56.203 23.906 51.469-91.312 66.234-113.44 118.41-176.02 29.344-10.125 57.516-16.266 84.938-18.609 18.141-1.6406 36-1.5469 53.719 0.14063zm291.28 25.453c19.266 19.266 28.875 44.484 28.875 69.75h-0.09375c0 25.266-9.6094 50.531-28.828 69.703-19.266 19.266-44.484 28.922-69.703 28.922-25.172 0-50.391-9.6562-69.703-28.922l-0.046875 0.046875c-19.219-19.219-28.828-44.484-28.828-69.703h-0.046875c0-25.266 9.6562-50.484 28.875-69.75 19.266-19.266 44.484-28.875 69.75-28.875 25.219-0.09375 50.484 9.5625 69.75 28.828zm-7.0312 69.703c0 15.984-6.1406 32.016-18.422 44.297-12.234 12.234-28.266 18.328-44.297 18.328-16.078 0-32.109-6.0938-44.297-18.281v-0.09375c-12.281-12.281-18.422-28.312-18.422-44.297h0.09375c0-16.031 6.0938-32.062 18.328-44.297s28.266-18.328 44.297-18.328 32.062 6.0938 44.297 18.328 18.328 28.266 18.328 44.297z" fill="#600a68" fill-rule="evenodd"/>
</svg>
