<?xml version="1.0" encoding="UTF-8"?>
<svg width="1200pt" height="1200pt" version="1.1" viewBox="0 0 1200 1200" xmlns="http://www.w3.org/2000/svg">
 <path d="m597.52 785.21-181.03-104.48c-0.84375-0.46875-1.7344-0.65625-2.5781-0.65625-0.98438 0-1.8281 0.23438-2.5312 0.60938s-1.3594 1.0312-1.7812 1.8281c-0.375 0.60938-0.5625 1.5-0.5625 2.5312v209.02c0 1.0781 0.23438 1.9688 0.5625 2.5781 0.42188 0.70312 1.0781 1.3594 1.7812 1.7812 0.70312 0.375 1.5938 0.60938 2.5312 0.60938 0.89062 0 1.7812-0.23438 2.5312-0.65625l181.03-104.48c0.79688-0.46875 1.4062-1.0781 1.7812-1.7344 0.375-0.70312 0.60938-1.5938 0.60938-2.5781 0-0.9375-0.23438-1.875-0.70312-2.7656-0.51562-0.75-0.98438-1.2188-1.6406-1.5469zm-163.08-135.56 180.94 104.48c6.0469 3.4688 10.828 8.25 14.203 13.641l0.79688 1.2188c3.6562 6.375 5.5312 13.5 5.5312 20.531 0 6.9844-1.8281 14.062-5.5312 20.438-3.4219 5.9062-8.4375 11.156-15 14.953l-181.03 104.48c-6.6562 3.8438-13.641 5.5781-20.391 5.5781-7.1719 0-14.203-2.0156-20.391-5.5781-6.1406-3.5156-11.391-8.6719-15-15-3.4688-6-5.4844-12.938-5.4844-20.438v-209.02c0-7.5469 2.0625-14.531 5.5312-20.531 3.6094-6.2344 8.8594-11.344 15-14.906 6.1875-3.5625 13.219-5.5312 20.344-5.5312 6.7969 0 13.828 1.7344 20.484 5.625zm515.95-53.016-177.71 1.1719 31.5 86.625c4.875 13.5 3.8906 27.75-1.7344 39.844-5.7188 12.047-15.984 22.031-29.438 26.953l-45.422 16.547c-12.797 4.6406-26.344 3.9375-38.062-1.0781l-1.7344-0.70312c-12.094-5.625-22.031-15.891-26.953-29.438l-34.078-93.656c-13.312 4.7344-27.469 3.6562-39.516-1.9219-12.094-5.5781-22.078-15.844-27-29.344l-33.984-93.375h-490.31v466.97c0 20.766 8.5312 39.656 22.219 53.344s32.578 22.219 53.297 22.219h763.31c20.766 0 39.656-8.4844 53.344-22.219 13.688-13.688 22.219-32.578 22.219-53.344v-388.64zm-914.44-114.33h478.31c-1.5-10.266 0.14062-20.531 4.3594-29.625 5.5781-12.094 15.844-22.078 29.391-27l123.19-44.812 71.156-58.969h-630.89c-20.812 0-39.703 8.4844-53.344 22.125-13.688 13.734-22.219 32.672-22.219 53.391v84.891zm393.52-119.34c10.734 0 20.531 4.4062 27.609 11.531 7.125 7.0312 11.531 16.828 11.531 27.609 0 10.828-4.4062 20.578-11.484 27.656l-1.3594 1.2188c-6.9375 6.3281-16.219 10.266-26.297 10.266-10.781 0-20.625-4.4062-27.703-11.484s-11.484-16.875-11.484-27.656c0-10.828 4.4062-20.578 11.484-27.656s16.875-11.484 27.703-11.484zm-133.36 0c10.734 0 20.531 4.4062 27.609 11.531 7.125 7.0312 11.531 16.828 11.531 27.609 0 10.828-4.4062 20.578-11.484 27.656l-1.3594 1.2188c-6.9375 6.3281-16.219 10.266-26.297 10.266-10.734 0-20.531-4.4062-27.609-11.531-7.125-7.0312-11.531-16.828-11.531-27.609 0-10.828 4.4062-20.578 11.484-27.656l1.3125-1.2188c6.9375-6.375 16.219-10.266 26.344-10.266zm-133.36 0c10.781 0 20.578 4.4062 27.656 11.484 7.0781 7.0781 11.484 16.875 11.484 27.656s-4.4062 20.578-11.484 27.656c-7.0781 7.0781-16.875 11.484-27.656 11.484-10.734 0-20.531-4.4062-27.609-11.531-7.125-7.0312-11.531-16.828-11.531-27.609 0-10.828 4.4062-20.578 11.484-27.656l1.3125-1.2188c6.9375-6.375 16.219-10.266 26.344-10.266zm573.61 240.1-75.891 27.609 34.078 93.703c1.5 4.125 4.6406 7.2656 8.8594 9.2812 4.0312 1.6406 8.0625 1.7812 11.906 0.375l45.422-16.547c4.125-1.5 7.3594-4.6406 9.0938-8.3906 1.7344-3.8438 2.0625-8.2969 0.5625-12.422l-34.078-93.609zm-12.281-33.75-28.875-79.312c-3.375-9.3281 1.4531-19.641 10.734-23.016 9.3281-3.375 19.641 1.4531 23.016 10.734l30.656 84.281 282.24-1.8281-122.95-337.78-227.11 188.06c-1.5469 1.2656-3.3281 2.2969-5.3438 3.0469l-126.19 45.938c-4.125 1.5-7.3125 4.6406-9.0469 8.3906-1.8281 3.75-2.1094 8.2031-0.60938 12.375l43.406 119.2c1.5 4.0781 4.6406 7.2656 8.3906 9.0469 3.75 1.8281 8.2031 2.1562 12.422 0.65625l16.734-6.0938 92.531-33.656zm271.5-429.05-45.234 16.453c-3.7969 1.3594-6.7969 4.125-8.8125 7.875-1.9688 4.2188-2.2969 8.6719-0.79688 12.797l146.76 403.18c1.3594 3.7969 4.0781 6.7969 7.875 8.8125 4.2188 1.9688 8.6719 2.2969 12.797 0.79688l45.234-16.453c4.0781-1.5 7.2656-4.5938 9-8.3438 1.7812-3.7031 2.1094-8.1562 0.60938-12.328l-146.72-403.18c-1.5-4.0781-4.5938-7.2656-8.3438-9-3.75-1.8281-8.1562-2.1094-12.328-0.60938z" fill="#600a68"/>
</svg>
