<svg xmlns="http://www.w3.org/2000/svg" version="1.1" xmlns:xlink="http://www.w3.org/1999/xlink" width="512" height="512" x="0" y="0" viewBox="0 0 512 512" style="enable-background:new 0 0 512 512" xml:space="preserve" class=""><g><g fill-rule="evenodd" clip-rule="evenodd"><path fill="#ffffff" d="M178.426 81.277H409.73l62.569 71.912v330.412c0 5.509-4.493 10.003-10.003 10.003h-283.87c-5.509 0-10.003-4.493-10.003-10.003V91.279c.001-5.509 4.494-10.002 10.003-10.002z" opacity="1" data-original="#f4f6f8" class=""></path><path fill="#ebebeb" d="M409.73 81.277v61.909c0 5.509 4.493 10.003 10.003 10.003h52.566z" opacity="1" data-original="#e4e8eb" class=""></path><path fill="#4d72ac" d="M272.194 150.178c-22.506 0-33.798 27.266-17.885 43.179a7.509 7.509 0 0 1 0 10.617l-16.162 16.162a7.507 7.507 0 0 1-10.617 0c-15.913-15.913-43.179-4.621-43.179 17.885a7.506 7.506 0 0 1-7.507 7.507h-22.856a7.506 7.506 0 0 1-7.507-7.507c0-22.534-27.246-33.818-43.179-17.885a7.507 7.507 0 0 1-10.617 0l-16.162-16.162a7.509 7.509 0 0 1 0-10.617c15.913-15.913 4.621-43.179-17.885-43.179a7.507 7.507 0 0 1-7.507-7.507v-22.856a7.507 7.507 0 0 1 7.507-7.507c22.506 0 33.798-27.266 17.885-43.179a7.51 7.51 0 0 1 0-10.618l16.162-16.162a7.509 7.509 0 0 1 10.617 0c15.913 15.913 43.179 4.621 43.179-17.885a7.507 7.507 0 0 1 7.507-7.507h22.856a7.507 7.507 0 0 1 7.507 7.507c0 22.506 27.266 33.798 43.179 17.885a7.509 7.509 0 0 1 10.617 0l16.162 16.162a7.51 7.51 0 0 1 0 10.618c-15.913 15.913-4.621 43.179 17.885 43.179a7.506 7.506 0 0 1 7.507 7.507v22.856a7.506 7.506 0 0 1-7.507 7.507z" opacity="1" data-original="#fdcd56" class=""></path><circle cx="165.415" cy="131.242" r="54.911" fill="#ffffff" opacity="1" data-original="#f4f6f8" class=""></circle><path fill="#ffbc50" d="m63.402 494.064-23.7-39.826V276.512c0-13.981 11.439-25.421 25.421-25.421 13.981 0 25.421 11.439 25.421 25.421v177.726l-23.7 39.826a1.955 1.955 0 0 1-1.721.979c-.727 0-1.35-.355-1.721-.979z" opacity="1" data-original="#66d4f1" class=""></path><path fill="#b8357b" d="M90.543 276.513c0-13.981-11.439-25.421-25.421-25.421-13.981 0-25.42 11.439-25.42 25.421v20.238h50.842v-20.238z" opacity="1" data-original="#636c77" class=""></path><path fill="#8c9bb2" d="M90.543 454.238H39.702l23.7 39.826c.371.624.995.979 1.721.979s1.35-.355 1.721-.979z" opacity="1" data-original="#efc7a4" class=""></path><path d="M327.354 419.877a6.997 6.997 0 0 1-7.002 6.997h-96.619a6.997 6.997 0 0 1-7.002-6.997 6.998 6.998 0 0 1 7.002-7.002h96.619a6.998 6.998 0 0 1 7.002 7.002zm96.628-52.081a6.998 6.998 0 0 1-7.002 7.002H223.734c-3.873 0-7.002-3.134-7.002-7.002s3.129-7.002 7.002-7.002H416.98a6.998 6.998 0 0 1 7.002 7.002zm0-52.081a6.998 6.998 0 0 1-7.002 7.002H223.734a6.998 6.998 0 0 1-7.002-7.002 7 7 0 0 1 7.002-7.002H416.98a7.001 7.001 0 0 1 7.002 7.002zm0-52.08a6.998 6.998 0 0 1-7.002 7.002H223.734a6.998 6.998 0 0 1-7.002-7.002 6.997 6.997 0 0 1 7.002-6.997H416.98a6.995 6.995 0 0 1 7.002 6.997zm-258.568-85.438c-26.422 0-47.912-21.495-47.912-47.911 0-26.417 21.49-47.912 47.912-47.912 26.417 0 47.912 21.495 47.912 47.912 0 26.416-21.495 47.911-47.912 47.911zm61.911-47.912c0-34.139-27.772-61.911-61.911-61.911-34.143 0-61.91 27.772-61.91 61.911 0 34.138 27.767 61.91 61.91 61.91 34.139 0 61.911-27.772 61.911-61.91zM65.125 482.31l-13.114-22.031h26.224zm-18.422-36.031V302.794h36.84v143.485zm18.422-189.147c10.15 0 18.417 8.263 18.417 18.422v13.236h-36.84v-13.236c.001-10.16 8.259-18.422 18.423-18.422zm0-13.999c-17.881 0-32.421 14.545-32.421 32.421v177.728c0 1.256.339 2.494.979 3.576l25.419 42.721a7 7 0 0 0 12.032 0l25.419-42.721a6.954 6.954 0 0 0 .988-3.576V275.554c.001-17.877-14.549-32.421-32.416-32.421zm110.298 242.513h289.87V159.233h-55.568a7.004 7.004 0 0 1-7.002-7.002V87.319H253.944c.16 2.08.659 4.033 1.369 5.731 2.259 5.463 7.882 11.298 16.879 11.298 7.999 0 14.512 6.508 14.512 14.507v22.855c0 7.999-6.513 14.512-14.512 14.512-8.997 0-14.62 5.835-16.879 11.298-2.268 5.463-2.419 13.566 3.938 19.928a14.406 14.406 0 0 1 4.254 10.258c0 3.877-1.511 7.52-4.254 10.263l-16.159 16.159c-5.661 5.656-14.86 5.656-20.521 0-6.357-6.362-14.46-6.211-19.928-3.948-5.463 2.264-11.303 7.887-11.303 16.883 0 7.999-6.498 14.507-14.498 14.507h-1.421v234.076zm-21.951-248.584c0 .282.23.508.513.508h22.86a.502.502 0 0 0 .499-.508c0-13.298 7.651-24.723 19.951-29.819 12.3-5.091 25.777-2.419 35.178 6.983a.507.507 0 0 0 .72 0l16.163-16.159a.488.488 0 0 0 .146-.362.487.487 0 0 0-.146-.358c-9.401-9.402-12.074-22.883-6.983-35.188 5.101-12.296 16.521-19.942 29.819-19.942a.51.51 0 0 0 .513-.508v-22.855a.513.513 0 0 0-.513-.508c-13.298 0-24.718-7.642-29.819-19.942-5.091-12.3-2.419-25.781 6.983-35.183a.49.49 0 0 0 .146-.362.487.487 0 0 0-.146-.358l-16.163-16.159a.503.503 0 0 0-.72 0c-9.401 9.397-22.878 12.074-35.178 6.978s-19.951-16.521-19.951-29.819a.5.5 0 0 0-.499-.503h-22.86a.51.51 0 0 0-.513.503c0 13.298-7.637 24.723-19.937 29.819s-25.781 2.423-35.183-6.978a.503.503 0 0 0-.72 0l-16.16 16.16a.51.51 0 0 0 0 .72c9.401 9.402 12.07 22.883 6.978 35.183-5.096 12.3-16.516 19.942-29.819 19.942a.512.512 0 0 0-.508.508v22.855a.51.51 0 0 0 .508.508c13.302 0 24.723 7.646 29.819 19.942 5.092 12.305 2.423 25.786-6.978 35.188a.51.51 0 0 0 0 .72l16.159 16.159a.507.507 0 0 0 .72 0c6.254-6.258 14.31-9.538 22.619-9.538 4.193 0 8.451.833 12.573 2.541 12.301 5.091 19.929 16.525 19.929 29.832zm263.25-138.036 40.199 46.203h-40.199zm60.852 48.608-62.569-71.91a6.976 6.976 0 0 0-5.28-2.404H259.073c.061-.066.122-.132.179-.198a14.416 14.416 0 0 0 4.254-10.263c0-3.873-1.511-7.52-4.254-10.258l-16.159-16.159c-5.661-5.656-14.86-5.656-20.521 0-6.357 6.362-14.46 6.211-19.928 3.943-5.463-2.263-11.303-7.886-11.303-16.883 0-7.995-6.498-14.502-14.498-14.502h-22.86c-7.999 0-14.512 6.508-14.512 14.502 0 8.997-5.83 14.62-11.298 16.883-5.463 2.264-13.561 2.419-19.933-3.943-5.647-5.656-14.851-5.656-20.507 0l-16.161 16.16c-5.661 5.656-5.661 14.865 0 20.521 6.362 6.357 6.211 14.465 3.938 19.928-2.259 5.463-7.877 11.298-16.879 11.298-7.999 0-14.507 6.508-14.507 14.507v22.855c0 7.999 6.508 14.512 14.507 14.512 9.002 0 14.62 5.835 16.879 11.298 2.273 5.463 2.423 13.566-3.938 19.928-5.661 5.656-5.661 14.86 0 20.521l16.163 16.159c5.647 5.656 14.86 5.656 20.507 0 6.381-6.371 14.484-6.226 19.942-3.967 5.458 2.264 11.289 7.891 11.289 16.902 0 7.999 6.512 14.507 14.512 14.507h7.439v241.073a6.997 6.997 0 0 0 6.997 7.002h303.873a7 7 0 0 0 7.001-7.002V152.231a6.996 6.996 0 0 0-1.721-4.597z" fill="#000000" opacity="1" data-original="#000000" class=""></path></g></g></svg>