<?xml version="1.0" encoding="UTF-8"?>
<svg width="1200pt" height="1200pt" version="1.1" viewBox="0 0 1200 1200" xmlns="http://www.w3.org/2000/svg">
 <path d="m469.36 222.98 7.5938 3.1875 39.422-26.438 81.422 81.422-26.438 39.422 3.1875 7.7344 46.547 9.1875v115.22l-46.547 9.1875-3.1875 7.5938 26.438 39.422-81.422 81.422-39.422-26.438-7.5938 3.1875-9.1875 46.547h-54v124.18c30.375 2.5781 60.469 12.469 89.859 22.266 33.797 11.156 68.812 23.016 104.81 23.016l139.13-0.14062c46.172 0 83.859 37.828 83.859 84 0 8.8125-1.3594 17.391-3.9375 25.359l14.438-8.3438c35.859-20.672 71.859-41.156 107.86-61.828 23.391-13.453 46.781-26.812 70.031-40.406 4.875-2.8125 10.031-5.7656 15.188-8.6719l0.046875-592.31h-131.72v-131.76h-489.56v127.36h54zm136.03 302.44h53.625c8.6719 0 15.797 7.125 15.797 15.797s-7.125 15.797-15.797 15.797h-53.625c-8.6719 0-15.797-7.125-15.797-15.797 0.14062-8.6719 7.2188-15.797 15.797-15.797zm37.078-82.641c0-8.6719 7.125-15.797 15.797-15.797h133.97c8.6719 0 15.797 6.9844 15.797 15.797 0 8.6719-7.125 15.797-15.797 15.797h-133.97c-8.6719 0-15.797-7.125-15.797-15.797zm213.71 212.58h-374.72c-8.6719 0-15.797-6.9844-15.797-15.797 0-8.6719 6.9844-15.797 15.797-15.797h374.58c8.6719 0 15.656 7.125 15.656 15.797 0.14062 8.8125-6.9375 15.797-15.516 15.797zm96 0h-27.188c-8.6719 0-15.797-6.9844-15.797-15.797 0-8.6719 7.125-15.797 15.797-15.797h27.188c8.6719 0 15.797 7.125 15.797 15.797 0 8.8125-6.9844 15.797-15.797 15.797zm0-98.344h-224.11c-8.6719 0-15.797-7.125-15.797-15.797s6.9844-15.797 15.797-15.797h224.21c8.6719 0 15.797 7.125 15.797 15.797-0.09375 8.7188-7.0781 15.797-15.891 15.797zm0-98.438h-90.984c-8.6719 0-15.656-7.125-15.656-15.797s6.9844-15.797 15.656-15.797h90.984c8.6719 0 15.797 6.9844 15.797 15.797 0 8.6719-6.9844 15.797-15.797 15.797zm0-98.438h-293.9c-8.6719 0-15.797-7.125-15.797-15.797s7.125-15.797 15.797-15.797h294c8.6719 0 15.797 6.9844 15.797 15.797-0.09375 8.6719-7.0781 15.797-15.891 15.797zm0-130.08c8.6719 0 15.797 7.125 15.797 15.797s-6.9844 15.797-15.797 15.797h-332.44c-8.6719 0-15.797-6.9844-15.797-15.797 0-8.6719 7.125-15.797 15.797-15.797zm-470.72-98.438h221.16c8.6719 0 15.797 7.125 15.797 15.797s-7.125 15.797-15.797 15.797h-221.16c-8.6719 0-15.797-6.9844-15.797-15.797 0.14062-8.6719 7.125-15.797 15.797-15.797zm546 16.781h-99.422v-99.422zm-757.31 324.74-21.328 31.734 43.969 43.828 31.734-21.328 39.656 16.406 7.3594 37.453h62.109l7.3594-37.453 39.656-16.406 31.734 21.328 43.828-43.828-21.328-31.734 16.406-39.656 37.453-7.3594v-62.062l-37.453-7.3594-16.406-39.656 21.328-31.734-43.828-43.828-31.734 21.188-39.656-16.406-7.3594-37.453h-62.109l-7.3594 37.453-39.656 16.406-31.734-21.188-43.969 43.828 21.328 31.734-16.406 39.656-37.453 7.3594v62.062l37.453 7.3594zm132.47-158.58c44.438 0 80.578 36 80.578 80.438s-36 80.578-80.578 80.578c-44.438 0-80.438-36-80.438-80.578 0-44.438 36-80.438 80.438-80.438zm447.79 597.42c19.125-11.016 216.37-123.56 216.74-125.16 24.469-13.969 56.203-5.25 70.266 19.125l0.14062 0.23438c14.062 24.609 5.3906 56.062-19.125 70.266l-208.87 120.74c-110.81 64.031-151.82 62.953-225.56 61.219-15.188-0.375-31.594-0.75-45.656-0.75l-316.78 0.046875-100.41-208.87c29.016-14.578 54.844-29.859 77.016-43.125 24.141-14.344 43.828-26.062 57.188-30.469 41.391-13.594 85.219 0.84375 130.4 15.797 36.844 12.234 74.438 24.609 115.12 24.609l139.13-0.14062c28.266 0 51.562 23.391 51.562 51.656s-23.25 51.562-51.562 51.562h-205.55c-9.9375 0-18 8.0625-18 18s8.0625 18 18 18h205.45c39.422 0 61.219-12.234 93.656-32.203 1.6406-1.2188 16.828-10.406 16.828-10.547zm-794.06-19.828c-1.3594-3.9375 0.14062-8.4375 3.6562-10.641l103.36-49.734c4.4062-2.0625 9.9375-0.23437 12 4.1719 40.547 84.234 81.047 168.61 121.6 252.84 1.9688 4.2656 0.375 10.031-4.1719 12l-102.61 49.359c-4.2656 2.0625-9.7969 0.23438-11.859-4.1719z" fill="#600a68" fill-rule="evenodd"/>
</svg>
